<svg width="674" height="465" viewBox="0 0 674 465" fill="none" xmlns="http://www.w3.org/2000/svg">
<path d="M314.038 377.833C409.116 384.418 428.636 392.089 460.314 381.107C498.327 367.927 490.214 349.947 533.452 332.007C585.865 310.26 626.55 324.747 653.607 308.003C691.606 284.488 669.248 231.726 643.159 202.167C633.544 191.274 624.175 180.658 604.848 171.616C569.866 155.249 533.291 158.555 401.107 167.252C276.479 175.451 263.359 175.515 243.856 174.453C183.092 171.146 171.524 162.968 132.403 167.179C121.577 168.344 38.7095 178.124 9.3392 223.434C-18.6991 266.689 24.4074 307.784 34.1066 317.03C63.4246 344.98 104.066 357.29 123.889 363.101C176.164 378.426 193.597 369.493 314.038 377.833Z" fill="#1F1F1F"/>
<path d="M100.217 405.391C113.136 390.416 132.262 389.105 162.942 387.469C174.52 386.852 201.053 386.232 238.295 393.986C284.689 403.646 277.413 387.134 299.648 387.134C327.884 387.134 343.701 394.585 362.117 402.132C364.453 403.09 377.292 408.352 378.002 416.796C379.409 433.55 332.247 453.249 294.503 461.192C269.292 466.498 263.196 463.42 200.415 463.229C122.661 462.993 100.58 467.618 91.2558 452.639C82.8115 439.072 89.8205 417.441 100.217 405.391Z" fill="#1F1F1F"/>
<g style="mix-blend-mode:multiply" opacity="0.35">
<g style="mix-blend-mode:multiply" opacity="0.35">
<path d="M514.547 295.335C515.585 294.815 516.457 294.015 517.067 293.025C517.677 292.035 518 290.894 518 289.73C518 288.566 517.677 287.425 517.067 286.435C516.457 285.445 515.585 284.645 514.547 284.124L286.016 169.457C285.417 169.157 284.756 169 284.086 169C283.415 169 282.754 169.157 282.155 169.457L127.386 247.114C126.669 247.473 126.066 248.026 125.645 248.71C125.223 249.394 125 250.182 125 250.987C125 251.791 125.223 252.579 125.645 253.263C126.066 253.947 126.669 254.5 127.386 254.86L346.011 368.169C349.68 370.011 353.724 370.979 357.827 371C361.93 371.02 365.982 370.092 369.67 368.288L514.547 295.335Z" fill="white"/>
</g>
<g style="mix-blend-mode:multiply" opacity="0.37955">
<path d="M287.555 170.463L130.422 249.146C129.694 249.511 129.082 250.071 128.654 250.764C128.227 251.457 128 252.256 128 253.07C128 253.885 128.227 254.684 128.654 255.377C129.082 256.07 129.694 256.63 130.422 256.995L351.115 371.033C354.848 372.906 358.953 373.919 363.128 373.995C367.304 374.072 371.443 373.211 375.242 371.475C376.092 371.664 435.04 342.404 435.838 342.009L523.362 298.07C524.415 297.547 525.308 296.751 525.947 295.764C526.587 294.777 526.949 293.636 526.997 292.461V292.461C526.997 292.419 527.001 292.375 527 292.334C526.983 291.18 526.66 290.051 526.065 289.062C525.47 288.074 524.624 287.26 523.613 286.705L291.475 170.463C290.866 170.159 290.195 170 289.515 170C288.834 170 288.163 170.159 287.555 170.463Z" fill="#F4F5F9"/>
</g>
<g style="mix-blend-mode:multiply" opacity="0.40909">
<path d="M290.354 170.465L132.435 249.412C131.703 249.778 131.088 250.34 130.658 251.035C130.228 251.73 130 252.532 130 253.349C130 254.166 130.228 254.967 130.658 255.663C131.088 256.358 131.703 256.92 132.435 257.286L352.923 370.916C356.683 372.804 360.81 373.852 365.017 373.985C369.224 374.119 373.409 373.336 377.282 371.691C379.013 372.074 437.115 343.661 438.738 342.859L527.206 298.566C528.264 298.046 529.168 297.26 529.832 296.286C530.496 295.313 530.895 294.184 530.992 293.01V293.01C530.992 292.97 531.001 292.925 531 292.885C530.988 291.73 530.68 290.597 530.105 289.594C529.53 288.592 528.708 287.753 527.716 287.158L294.294 170.465C293.683 170.159 293.008 170 292.324 170C291.64 170 290.966 170.159 290.354 170.465V170.465Z" fill="#EAEBF4"/>
</g>
<g style="mix-blend-mode:multiply" opacity="0.43864">
<path d="M286.356 171.448L134.343 247.558C133.639 247.911 133.047 248.454 132.633 249.124C132.219 249.794 132 250.566 132 251.354C132 252.142 132.219 252.914 132.633 253.584C133.047 254.255 133.639 254.797 134.343 255.15L345.291 363.916C348.92 365.744 352.895 366.785 356.954 366.97C361.014 367.155 365.067 366.48 368.847 364.99C371.379 365.551 426.18 339.093 428.554 337.919L514.211 295.013C516.077 294.08 517.988 291.812 517.988 289.728C517.988 289.69 518.001 289.647 518 289.609C517.951 287.516 516.79 284.924 514.958 284.009L290.149 171.448C289.56 171.153 288.911 171 288.252 171C287.594 171 286.945 171.153 286.356 171.448V171.448Z" fill="#DFE1EE"/>
</g>
<g style="mix-blend-mode:multiply" opacity="0.46818">
<path d="M289.756 171.452L137.35 248.217C136.643 248.574 136.05 249.12 135.635 249.797C135.22 250.473 135 251.251 135 252.046C135 252.84 135.22 253.619 135.635 254.295C136.05 254.971 136.643 255.518 137.35 255.874L347.512 364.769C351.162 366.621 355.15 367.702 359.231 367.947C363.312 368.191 367.4 367.593 371.242 366.19C374.67 366.954 428.454 341.235 431.669 339.635L518.061 296.148C519.856 295.246 521.984 292.908 521.984 290.892C521.984 290.855 522.001 290.811 522 290.775C521.954 288.728 520.836 285.929 519.073 285.044L293.558 171.452C292.968 171.155 292.317 171 291.657 171C290.997 171 290.346 171.155 289.756 171.452V171.452Z" fill="#D5D7E8"/>
</g>
<g style="mix-blend-mode:multiply" opacity="0.49773">
<path d="M303.257 172.487L139.671 254.503C138.913 254.884 138.275 255.469 137.83 256.191C137.385 256.913 137.149 257.745 137.149 258.594C137.149 259.442 137.385 260.274 137.83 260.996C138.275 261.719 138.913 262.303 139.671 262.684L363.785 378.142C367.715 380.13 372 381.32 376.393 381.644C380.785 381.968 385.198 381.42 389.378 380.031C394.039 381.065 450.49 354.644 454.862 352.481L548.157 305.787C550 304.866 552.516 302.313 552.516 300.252C552.516 300.215 552.539 300.166 552.539 300.13C552.49 298.014 551.343 294.822 549.532 293.917L307.339 172.487C306.705 172.169 306.007 172.004 305.298 172.004C304.59 172.004 303.891 172.169 303.257 172.487Z" fill="#CACDE3"/>
</g>
<g style="mix-blend-mode:multiply" opacity="0.52727">
<path d="M303.401 173.059L141.987 254.03C141.239 254.407 140.61 254.984 140.171 255.697C139.731 256.41 139.499 257.231 139.499 258.068C139.499 258.906 139.731 259.727 140.171 260.44C140.61 261.153 141.239 261.73 141.987 262.107L361.638 375.196C369.496 379.175 378.584 379.977 387.017 377.437C392.61 378.677 447.017 353.665 452.263 351.069L544.891 304.736C546.627 303.868 549.344 301.293 549.344 299.353C549.344 299.318 549.372 299.27 549.371 299.235C549.323 297.218 548.246 293.863 546.542 293.011L307.428 173.059C306.803 172.746 306.114 172.583 305.415 172.583C304.715 172.583 304.026 172.746 303.401 173.059Z" fill="#C0C2DD"/>
</g>
<g style="mix-blend-mode:multiply" opacity="0.55682">
<path d="M303.545 173.632L144.303 253.557C143.565 253.929 142.945 254.499 142.511 255.203C142.078 255.906 141.848 256.717 141.848 257.543C141.848 258.37 142.078 259.18 142.511 259.884C142.945 260.588 143.565 261.157 144.303 261.529L359.492 372.251C367.272 376.194 376.236 377.117 384.656 374.842C391.181 376.29 443.543 352.686 449.664 349.657L541.626 303.685C543.253 302.871 546.172 300.273 546.172 298.454C546.172 298.422 546.205 298.373 546.205 298.34C546.157 296.422 545.149 292.903 543.552 292.105L307.518 173.632C306.901 173.322 306.221 173.161 305.531 173.161C304.841 173.161 304.161 173.322 303.545 173.632Z" fill="#B5B8D7"/>
</g>
<g style="mix-blend-mode:multiply" opacity="0.58636">
<path d="M303.688 174.204L146.62 253.084C145.891 253.451 145.28 254.014 144.852 254.708C144.425 255.403 144.198 256.202 144.198 257.018C144.198 257.834 144.425 258.633 144.852 259.328C145.28 260.022 145.891 260.585 146.62 260.952L357.346 369.305C365.051 373.213 373.893 374.256 382.295 372.248C389.752 373.902 440.07 351.707 447.065 348.245L538.361 302.633C539.879 301.874 543 299.253 543 297.556C543 297.525 543.038 297.476 543.038 297.446C542.991 295.627 542.053 291.944 540.562 291.199L307.607 174.204C306.999 173.899 306.328 173.74 305.648 173.74C304.967 173.74 304.296 173.899 303.688 174.204Z" fill="#ABAED2"/>
</g>
<g style="mix-blend-mode:multiply" opacity="0.61591">
<path d="M303.832 174.777L148.936 252.611C148.218 252.974 147.614 253.529 147.193 254.214C146.771 254.899 146.548 255.688 146.548 256.493C146.548 257.297 146.771 258.086 147.193 258.772C147.614 259.457 148.218 260.012 148.936 260.375L355.2 366.36C362.832 370.233 371.555 371.394 379.934 369.653C388.323 371.514 436.597 350.728 444.466 346.833L535.096 301.582C536.506 300.877 539.829 298.232 539.829 296.657C539.829 296.628 539.872 296.579 539.871 296.551C539.825 294.831 538.956 290.984 537.572 290.292L307.697 174.777C307.097 174.476 306.436 174.319 305.765 174.319C305.094 174.319 304.432 174.476 303.832 174.777Z" fill="#A0A4CC"/>
</g>
<g style="mix-blend-mode:multiply" opacity="0.64545">
<path d="M303.976 175.349L151.252 252.138C150.544 252.496 149.949 253.044 149.533 253.72C149.118 254.396 148.898 255.174 148.898 255.968C148.898 256.761 149.118 257.539 149.533 258.215C149.949 258.891 150.544 259.439 151.252 259.797L353.054 363.414C360.617 367.253 369.221 368.532 377.573 367.059C386.894 369.127 433.123 349.749 441.867 345.422L531.831 300.531C533.132 299.88 536.657 297.212 536.657 295.758C536.657 295.732 536.704 295.682 536.704 295.656C536.659 294.035 535.86 290.025 534.582 289.386L307.786 175.349C307.195 175.052 306.543 174.897 305.881 174.897C305.219 174.897 304.567 175.052 303.976 175.349Z" fill="#969AC6"/>
</g>
<g style="mix-blend-mode:multiply" opacity="0.675">
<path d="M304.119 175.922L153.568 251.665C152.87 252.019 152.284 252.559 151.874 253.226C151.464 253.892 151.247 254.66 151.247 255.442C151.247 256.225 151.464 256.992 151.874 257.659C152.284 258.326 152.87 258.866 153.568 259.22L350.908 360.469C358.404 364.274 366.892 365.669 375.212 364.465C385.465 366.739 429.65 348.769 439.268 344.01L528.565 299.479C529.758 298.883 533.485 296.192 533.485 294.859C533.485 294.835 533.537 294.785 533.537 294.761C533.493 293.239 532.763 289.065 531.591 288.48L307.876 175.922C307.293 175.629 306.65 175.476 305.997 175.476C305.345 175.476 304.702 175.629 304.119 175.922Z" fill="#8B90C0"/>
</g>
<g style="mix-blend-mode:multiply" opacity="0.70455">
<path d="M304.263 176.494L155.885 251.192C155.196 251.541 154.618 252.074 154.215 252.731C153.811 253.389 153.597 254.146 153.597 254.917C153.597 255.689 153.811 256.445 154.215 257.103C154.618 257.761 155.196 258.293 155.885 258.643L348.762 357.523C356.409 361.375 365.447 358.849 372.851 361.87C383.459 366.198 426.176 347.79 436.669 342.598L525.3 298.428C526.385 297.886 530.313 295.172 530.313 293.96C530.313 293.938 530.37 293.888 530.37 293.867C530.326 292.444 529.666 288.106 528.601 287.574L307.965 176.494C307.391 176.205 306.757 176.054 306.114 176.054C305.471 176.054 304.837 176.205 304.263 176.494Z" fill="#8086BB"/>
</g>
<g style="mix-blend-mode:multiply" opacity="0.73409">
<path d="M304.407 177.067L158.201 250.719C157.523 251.063 156.953 251.589 156.555 252.237C156.158 252.886 155.947 253.631 155.947 254.392C155.947 255.153 156.158 255.898 156.555 256.547C156.953 257.195 157.523 257.721 158.201 258.065L346.616 354.578C354.201 358.401 363.101 356.399 370.49 359.276C382.057 363.778 422.703 346.811 434.07 341.186L522.035 297.377C523.011 296.889 527.141 294.152 527.141 293.061C527.141 293.042 527.203 292.992 527.203 292.972C527.16 291.648 526.57 287.147 525.611 286.667L308.055 177.067C307.489 176.782 306.864 176.633 306.231 176.633C305.597 176.633 304.973 176.782 304.407 177.067Z" fill="#767CB5"/>
</g>
<g style="mix-blend-mode:multiply" opacity="0.76364">
<path d="M304.55 177.639L160.517 250.246C159.849 250.586 159.288 251.104 158.896 251.743C158.504 252.382 158.297 253.117 158.297 253.867C158.297 254.616 158.504 255.352 158.896 255.991C159.288 256.63 159.849 257.148 160.517 257.488L344.47 351.632C351.994 355.427 360.749 353.947 368.129 356.681C380.663 361.325 419.23 345.832 431.47 339.774L518.77 296.325C519.637 295.892 523.97 293.132 523.97 292.163C523.97 292.145 524.036 292.095 524.036 292.077C523.994 290.852 523.473 286.187 522.621 285.761L308.144 177.639C307.587 177.358 306.971 177.212 306.347 177.212C305.723 177.212 305.108 177.358 304.55 177.639Z" fill="#6B72AF"/>
</g>
<g style="mix-blend-mode:multiply" opacity="0.79318">
<path d="M304.694 178.212L162.833 249.773C162.175 250.108 161.623 250.619 161.237 251.249C160.851 251.879 160.646 252.603 160.646 253.342C160.646 254.08 160.851 254.805 161.237 255.434C161.623 256.064 162.175 256.575 162.833 256.911L342.324 348.687C349.786 352.453 358.392 351.493 365.768 354.087C379.279 358.838 415.756 344.853 428.871 338.363L515.505 295.274C516.264 294.895 520.798 292.112 520.798 291.264C520.798 291.248 520.869 291.198 520.869 291.183C520.828 290.056 520.376 285.228 519.631 284.855L308.234 178.212C307.685 177.935 307.079 177.79 306.464 177.79C305.849 177.79 305.243 177.935 304.694 178.212Z" fill="#6168AA"/>
</g>
<g style="mix-blend-mode:multiply" opacity="0.82273">
<path d="M304.838 178.784L165.15 249.3C164.502 249.63 163.957 250.134 163.577 250.755C163.197 251.375 162.996 252.089 162.996 252.816C162.996 253.544 163.197 254.258 163.577 254.878C163.957 255.499 164.502 256.002 165.15 256.333L340.178 345.741C347.579 349.479 355.681 350.598 363.407 351.493C378.582 353.249 412.283 343.874 426.273 336.951L512.24 294.223C512.89 293.897 517.626 291.092 517.626 290.365C517.626 290.352 517.702 290.301 517.702 290.288C517.662 289.261 517.28 284.268 516.641 283.949L308.323 178.784C307.783 178.511 307.186 178.369 306.581 178.369C305.975 178.369 305.378 178.511 304.838 178.784Z" fill="#565EA4"/>
</g>
<g style="mix-blend-mode:multiply" opacity="0.85227">
<path d="M304.981 179.357L167.466 248.827C166.828 249.153 166.292 249.649 165.918 250.26C165.544 250.872 165.346 251.575 165.346 252.291C165.346 253.008 165.544 253.711 165.918 254.322C166.292 254.933 166.828 255.43 167.466 255.756L338.032 342.796C345.371 346.505 353.369 347.877 361.046 348.898C377.136 351.038 408.81 342.895 423.673 335.539L508.974 293.171C509.517 292.9 514.454 290.072 514.454 289.466C514.454 289.455 514.535 289.404 514.535 289.393C514.496 288.465 514.183 283.309 513.651 283.043L308.412 179.357C307.881 179.088 307.293 178.948 306.697 178.948C306.101 178.948 305.513 179.088 304.981 179.357Z" fill="#4C539E"/>
</g>
<g style="mix-blend-mode:multiply" opacity="0.88182">
<path d="M305.125 179.929L169.782 248.354C169.154 248.675 168.627 249.164 168.259 249.766C167.891 250.368 167.696 251.06 167.696 251.766C167.696 252.472 167.891 253.164 168.259 253.766C168.627 254.368 169.154 254.857 169.782 255.179L335.886 339.85C343.164 343.531 351.05 345.155 358.685 346.304C375.68 348.861 405.336 341.915 421.074 334.127L505.709 292.12C506.143 291.903 511.282 289.052 511.282 288.567C511.282 288.559 511.368 288.507 511.368 288.499C511.329 287.669 511.087 282.349 510.661 282.136L308.502 179.929C307.979 179.664 307.4 179.526 306.814 179.526C306.227 179.526 305.649 179.664 305.125 179.929Z" fill="#414999"/>
</g>
<g style="mix-blend-mode:multiply" opacity="0.91136">
<path d="M305.269 180.502L172.098 247.88C171.48 248.198 170.962 248.679 170.599 249.272C170.237 249.865 170.046 250.546 170.046 251.241C170.046 251.936 170.237 252.617 170.599 253.21C170.962 253.803 171.48 254.284 172.098 254.601L333.74 336.905C340.956 340.557 348.725 342.432 356.324 343.709C374.214 346.717 401.863 340.936 418.475 332.715L502.444 291.069C502.769 290.906 508.111 288.032 508.111 287.668C508.111 287.662 508.201 287.611 508.201 287.604C508.163 286.873 507.99 281.39 507.671 281.23L308.592 180.502C308.077 180.241 307.507 180.105 306.93 180.105C306.353 180.105 305.784 180.241 305.269 180.502Z" fill="#373F93"/>
</g>
<g style="mix-blend-mode:multiply" opacity="0.94091">
<path d="M305.412 181.074L174.415 247.407C173.806 247.72 173.296 248.194 172.94 248.778C172.584 249.361 172.395 250.032 172.395 250.716C172.395 251.399 172.584 252.07 172.94 252.653C173.296 253.237 173.806 253.711 174.415 254.024L331.593 333.959C338.671 337.398 346.204 339.807 353.963 341.115C372.737 344.605 398.389 339.957 415.876 331.303L499.179 290.017C501.152 289.033 503.075 287.949 504.939 286.77L505.034 286.709C504.997 286.077 504.893 280.43 504.68 280.324L308.681 181.074C308.174 180.817 307.615 180.684 307.047 180.684C306.479 180.684 305.919 180.817 305.412 181.074Z" fill="#2C358D"/>
</g>
<g style="mix-blend-mode:multiply" opacity="0.97045">
<path d="M305.556 181.647L176.731 246.934C176.133 247.242 175.631 247.709 175.281 248.283C174.93 248.858 174.745 249.518 174.745 250.19C174.745 250.863 174.93 251.523 175.281 252.097C175.631 252.672 176.133 253.138 176.731 253.446L329.447 331.014C336.463 334.496 343.915 337.021 351.602 338.52C371.249 342.525 394.916 338.978 413.277 329.892L495.914 288.966C496.022 288.912 501.767 285.992 501.767 285.871L501.867 285.815C501.831 285.281 501.797 279.471 501.69 279.418L308.77 181.647C308.272 181.394 307.722 181.262 307.163 181.262C306.605 181.262 306.054 181.394 305.556 181.647Z" fill="#222B88"/>
</g>
<g style="mix-blend-mode:multiply" opacity="0.35">
<path d="M498.7 284.92C498.638 284.488 498.7 278.511 498.7 278.511L308.86 182.219C308.37 181.97 307.829 181.841 307.28 181.841C306.731 181.841 306.19 181.97 305.7 182.219L179.047 246.461C178.459 246.765 177.966 247.224 177.621 247.789C177.277 248.354 177.095 249.003 177.095 249.665C177.095 250.327 177.277 250.976 177.621 251.541C177.966 252.106 178.459 252.566 179.047 252.869L327.301 328.068C340.21 334.616 354.467 338.062 368.941 338.133C383.415 338.205 397.706 334.899 410.678 328.48L498.7 284.92Z" fill="#172182"/>
</g>
</g>
<path d="M363.611 355.212L141.314 244.281C139.645 243.447 137.238 237.778 140.523 235.831L291.121 167.08C292.217 166.532 293.425 166.247 294.65 166.247C295.875 166.247 297.084 166.532 298.179 167.08L519.791 271.415C523.073 273.057 522.427 283.914 519.145 285.554L374.484 355.212C372.796 356.057 370.935 356.496 369.048 356.496C367.16 356.496 365.299 356.057 363.611 355.212Z" fill="#A7CCFF"/>
<path d="M363.496 351.392L140.523 239.882C140.147 239.694 139.831 239.405 139.61 239.047C139.389 238.689 139.271 238.277 139.271 237.857C139.271 237.436 139.389 237.024 139.61 236.666C139.831 236.308 140.147 236.019 140.523 235.831L291.122 160.515C292.217 159.967 293.426 159.682 294.651 159.682C295.876 159.682 297.084 159.967 298.179 160.515L519.145 271.022C519.885 271.392 520.507 271.96 520.942 272.664C521.377 273.368 521.607 274.178 521.607 275.005C521.607 275.832 521.377 276.643 520.942 277.347C520.507 278.05 519.885 278.619 519.145 278.989L374.37 351.392C372.682 352.237 370.821 352.676 368.933 352.676C367.046 352.676 365.184 352.237 363.496 351.392Z" fill="url(#paint0_linear)"/>
<path d="M497.274 272.807L296.194 172.237C294.087 171.325 291.816 170.855 289.52 170.855C287.224 170.855 284.953 171.325 282.846 172.237L230.802 198.265C227.116 200.109 227.116 203.097 230.802 204.94L431.881 305.511C433.988 306.423 436.259 306.893 438.555 306.893C440.851 306.893 443.123 306.423 445.23 305.511L497.274 279.483C500.96 277.64 500.96 274.651 497.274 272.807Z" fill="#91BEFF"/>
<path d="M318.007 195.245L309.925 191.203L318.007 187.16L326.092 191.203L318.007 195.245Z" fill="#D1E5FE"/>
<path d="M290.917 181.698L282.833 177.655L290.917 173.613L299 177.655L290.917 181.698Z" fill="#D1E5FE"/>
<path d="M266.229 206.062L246.129 196.01L254.212 191.967L274.311 202.019L266.229 206.062Z" fill="#D1E5FE"/>
<path d="M242.779 206.572L233.893 202.129L241.978 198.086L250.863 202.53L242.779 206.572Z" fill="#D1E5FE"/>
<path d="M256.616 213.491L247.731 209.049L255.815 205.006L264.7 209.448L256.616 213.491Z" fill="#D1E5FE"/>
<path d="M270.452 220.412L261.568 215.969L269.651 211.926L278.536 216.37L270.452 220.412Z" fill="#D1E5FE"/>
<path d="M405.363 287.882L396.477 283.439L404.561 279.396L413.447 283.839L405.363 287.882Z" fill="#D1E5FE"/>
<path d="M419.201 294.802L410.316 290.359L418.398 286.316L427.282 290.758L419.201 294.802Z" fill="#D1E5FE"/>
<path d="M433.037 301.722L424.152 297.278L432.235 293.235L441.121 297.678L433.037 301.722Z" fill="#D1E5FE"/>
<path d="M388.541 279.469L275.405 222.889L283.489 218.846L396.623 275.426L388.541 279.469Z" fill="#D1E5FE"/>
<path d="M445.817 295.876L425.718 285.823L433.801 281.781L453.901 291.833L445.817 295.876Z" fill="#D1E5FE"/>
<path d="M420.038 282.983L271.254 208.576L279.338 204.532L428.121 278.942L420.038 282.983Z" fill="#D1E5FE"/>
<path d="M331.117 201.802L323.032 197.759L331.117 193.715L339.201 197.759L331.117 201.802Z" fill="#D1E5FE"/>
<path d="M344.226 208.357L336.142 204.314L344.226 200.271L352.309 204.314L344.226 208.357Z" fill="#D1E5FE"/>
<path d="M357.334 214.912L349.25 210.869L357.334 206.828L365.418 210.869L357.334 214.912Z" fill="#D1E5FE"/>
<path d="M379.765 226.13L371.681 222.087L379.765 218.045L387.848 222.087L379.765 226.13Z" fill="#D1E5FE"/>
<path d="M392.873 232.687L384.79 228.644L392.873 224.601L400.957 228.644L392.873 232.687Z" fill="#D1E5FE"/>
<path d="M405.982 239.242L397.898 235.199L405.982 231.156L414.067 235.199L405.982 239.242Z" fill="#D1E5FE"/>
<path d="M419.092 245.799L411.007 241.756L419.092 237.713L427.175 241.756L419.092 245.799Z" fill="#D1E5FE"/>
<path d="M441.521 257.015L433.437 252.972L441.521 248.93L449.603 252.972L441.521 257.015Z" fill="#D1E5FE"/>
<path d="M454.628 263.57L446.546 259.527L454.628 255.486L462.714 259.527L454.628 263.57Z" fill="#D1E5FE"/>
<path d="M467.738 270.128L459.655 266.084L467.738 262.041L475.822 266.084L467.738 270.128Z" fill="#D1E5FE"/>
<path d="M480.847 276.682L472.763 272.639L480.847 268.596L488.93 272.639L480.847 276.682Z" fill="#D1E5FE"/>
<path d="M470.287 283.638L270.599 183.773L278.683 179.73L478.371 279.596L470.287 283.638Z" fill="#D1E5FE"/>
<path d="M458.052 289.757L258.363 189.892L266.447 185.849L466.136 285.715L458.052 289.757Z" fill="#D1E5FE"/>
<path d="M309.321 301.244L230.196 263.308C228.97 262.696 227.042 260.567 229.895 258.549L271.025 237.979C271.256 237.863 271.51 237.803 271.769 237.803C272.027 237.803 272.282 237.863 272.512 237.979L351.939 277.7C352.215 277.838 352.447 278.05 352.609 278.313C352.772 278.576 352.858 278.878 352.858 279.187C352.858 279.496 352.772 279.799 352.609 280.061C352.447 280.324 352.215 280.536 351.939 280.674L310.808 301.244C310.577 301.36 310.323 301.42 310.064 301.42C309.806 301.42 309.552 301.36 309.321 301.244Z" fill="#2948BD"/>
<path d="M309.321 302.88L229.895 263.158C229.619 263.019 229.387 262.807 229.224 262.544C229.062 262.282 228.976 261.979 228.976 261.67C228.976 261.362 229.062 261.059 229.224 260.796C229.387 260.534 229.619 260.321 229.895 260.183L271.025 239.614C271.256 239.499 271.51 239.438 271.769 239.438C272.027 239.438 272.282 239.499 272.512 239.614L351.939 279.336C352.215 279.474 352.447 279.686 352.609 279.949C352.772 280.212 352.858 280.514 352.858 280.823C352.858 281.132 352.772 281.434 352.609 281.697C352.447 281.96 352.215 282.172 351.939 282.31L310.808 302.88C310.577 302.995 310.323 303.055 310.064 303.055C309.806 303.055 309.552 302.995 309.321 302.88Z" fill="#91BEFF"/>
<path d="M505.633 290.355L490.785 297.781V294.964L505.633 287.538V290.355Z" fill="#172182"/>
<path d="M486.697 299.63L471.847 307.056V304.241L486.697 296.814V299.63Z" fill="#172182"/>
<path d="M517.834 282.99C517.766 283.768 517.502 284.517 517.069 285.167C516.635 285.817 516.045 286.348 515.353 286.711C513.984 287.396 512.873 286.841 512.873 285.471C512.942 284.692 513.205 283.944 513.638 283.294C514.072 282.643 514.661 282.112 515.353 281.749C516.724 281.064 517.834 281.619 517.834 282.99Z" fill="#172182"/>
<path d="M512.576 268.102L305.514 160.713C304.118 159.991 302.998 158.828 302.33 157.405C301.661 155.982 301.48 154.379 301.815 152.842L321.974 14.2642C323.113 7.57381 325.512 -3.28686 338.031 0.95625L552.118 111.016C553.501 111.744 554.605 112.907 555.261 114.325C555.916 115.744 556.086 117.339 555.743 118.863L528.633 265.838C527.483 272.439 518.089 270.874 512.576 268.102Z" fill="url(#paint1_linear)"/>
<path d="M552.572 119.8L527.174 259.845C526.286 270.098 523.022 271.89 519.356 271.115C517.019 270.408 514.776 269.422 512.674 268.179L301.115 161.779C299.718 161.058 298.598 159.895 297.929 158.473C297.26 157.05 297.078 155.446 297.412 153.91L322.455 12.6099C323.594 5.91956 325.131 -2.92294 337.115 4.23748L548.946 111.953C549.388 112.178 549.805 112.449 550.189 112.762C551.184 113.612 551.931 114.714 552.35 115.953C552.77 117.192 552.846 118.521 552.572 119.8Z" fill="#140023"/>
<path d="M516.432 265.54L306.277 160.188C304.291 159.176 301.82 156.66 302.155 154.598L327.967 9.00874C328.229 7.3976 329.86 6.81243 331.609 7.69618L545.575 115.866C546.47 116.333 547.203 117.059 547.68 117.949C548.157 118.838 548.356 119.851 548.25 120.855L520.32 263.76C520.241 264.171 520.064 264.557 519.806 264.886C519.548 265.215 519.215 265.477 518.834 265.651C518.454 265.825 518.038 265.906 517.62 265.887C517.202 265.867 516.795 265.749 516.432 265.54Z" fill="#1F1F1F"/>
<path d="M383.435 47.4144L349.483 30.9119L350.189 26.9385L384.032 43.3087L383.435 47.4144Z" fill="#8C8C8C"/>
<path d="M382.209 55.847L348.034 39.0685L348.75 35.0381L382.816 51.6809L382.209 55.847Z" fill="#5B5B5B"/>
<path d="M347.528 95.1247L338.876 90.6096L339.658 86.2051L348.283 90.6826L347.528 95.1247Z" fill="#77FF00"/>
<path d="M345.979 104.253L337.267 99.6592L338.062 95.1874L346.745 99.7424L345.979 104.253Z" fill="#DF4640"/>
<path d="M371.711 128.068L335.635 108.848L336.442 104.308L372.395 123.364L371.711 128.068Z" fill="#5B5B5B"/>
<path d="M444.3 188.605L438.639 185.525L439.09 180.332L444.728 183.384L444.3 188.605Z" fill="#91BEFF"/>
<path d="M453.857 193.807L448.141 190.696L448.554 185.456L454.249 188.538L453.857 193.807Z" fill="#91BEFF"/>
<path d="M463.512 199.059L457.739 195.918L458.114 190.631L463.864 193.743L463.512 199.059Z" fill="#91BEFF"/>
<path d="M458.483 185.215L442.322 176.514L442.753 171.391L458.853 180.015L458.483 185.215Z" fill="#91BEFF"/>
<path d="M480.695 197.174L464.16 188.272L464.508 183.044L480.977 191.866L480.695 197.174Z" fill="#91BEFF"/>
<path d="M405.755 76.697L370.438 59.184L371.087 54.9985L406.286 72.3667L405.755 76.697Z" fill="#77FF00"/>
<path d="M445.916 96.6118L409.092 78.3507L409.612 74.0078L446.308 92.1138L445.916 96.6118Z" fill="#77FF00"/>
<path d="M487.828 117.393L449.397 98.3374L449.776 93.8257L488.066 112.719L487.828 117.393Z" fill="#77FF00"/>
<path d="M531.606 139.102L491.462 119.197L491.687 114.505L531.677 134.238L531.606 139.102Z" fill="#77FF00"/>
<path d="M419.277 92.9122L383.169 74.8255L383.781 70.5203L419.767 88.4552L419.277 92.9122Z" fill="#77FF00"/>
<path d="M450.783 108.693L422.691 94.6217L423.167 90.15L451.159 104.101L450.783 108.693Z" fill="#77FF00"/>
<path d="M483.402 125.031L454.359 110.483L454.722 105.877L483.658 120.298L483.402 125.031Z" fill="#77FF00"/>
<path d="M517.144 141.932L487.1 126.883L487.343 122.134L517.271 137.052L517.144 141.932Z" fill="#77FF00"/>
<path d="M403.556 94.624L367.75 76.5077L368.419 72.1956L404.103 90.1614L403.556 94.624Z" fill="#77FF00"/>
<path d="M420.933 103.417L406.94 96.337L407.476 91.8595L421.42 98.8791L420.933 103.417Z" fill="#77FF00"/>
<path d="M438.804 112.46L424.549 105.246L425.022 100.692L439.228 107.844L438.804 112.46Z" fill="#77FF00"/>
<path d="M457.017 121.675L442.488 114.323L442.899 109.692L457.372 116.979L457.017 121.675Z" fill="#77FF00"/>
<path d="M475.576 131.065L460.77 123.574L461.112 118.862L475.864 126.29L475.576 131.065Z" fill="#77FF00"/>
<path d="M432.19 119.007L394.995 99.9945L395.577 95.4953L432.64 114.345L432.19 119.007Z" fill="#77FF00"/>
<path d="M474.552 140.661L435.707 120.805L436.144 116.128L474.847 135.811L474.552 140.661Z" fill="#77FF00"/>
<path d="M518.838 163.298L478.227 142.54L478.507 137.673L518.96 158.247L518.838 163.298Z" fill="#77FF00"/>
<path d="M401.289 113.11L364.98 94.3594L365.67 89.915L401.853 108.507L401.289 113.11Z" fill="#77FF00"/>
<path d="M397.32 152.285L357.769 130.989L358.508 126.269L397.918 147.377L397.32 152.285Z" fill="#77FF00"/>
<path d="M415.539 162.093L400.083 153.772L400.672 148.852L416.07 157.101L415.539 162.093Z" fill="#77FF00"/>
<path d="M414.445 172.359L398.873 163.887L399.471 158.887L414.986 167.285L414.445 172.359Z" fill="#77FF00"/>
<path d="M436.77 173.525L420.968 165.016L421.478 159.997L437.223 168.43L436.77 173.525Z" fill="#77FF00"/>
<path d="M425.464 178.356L419.915 175.336L420.435 170.235L425.964 173.228L425.464 178.356Z" fill="#77FF00"/>
<path d="M434.836 183.456L429.231 180.405L429.716 175.258L435.3 178.281L434.836 183.456Z" fill="#77FF00"/>
<path d="M396.088 162.371L356.251 140.693L357.001 135.898L396.697 157.385L396.088 162.371Z" fill="#77FF00"/>
<path d="M369.166 158.505L354.709 150.554L355.471 145.68L369.878 153.562L369.166 158.505Z" fill="#DF4640"/>
<path d="M385.509 177.202L328.398 148.108L329.073 143.241L385.978 172.069L385.509 177.202Z" fill="#5B5B5B"/>
<path d="M333.503 160.61L327.08 157L327.952 152.089L334.352 155.666L333.503 160.61Z" fill="#DF4640"/>
<path d="M342.648 165.75L336.161 162.103L337.002 157.148L343.467 160.762L342.648 165.75Z" fill="#DF4640"/>
<path d="M345.3 28.8784L341.5 27.0309L342.231 23.0894L346.018 24.921L345.3 28.8784Z" fill="#77FF00"/>
<path d="M343.823 37.0019L339.999 35.1247L340.74 31.1251L344.553 32.9886L343.823 37.0019Z" fill="#77FF00"/>
<path d="M342.326 45.2441L338.476 43.3361L339.229 39.2783L343.066 41.1715L342.326 45.2441Z" fill="#77FF00"/>
<path d="M340.805 53.6071L336.932 51.6661L337.695 47.5501L341.557 49.4741L340.805 53.6071Z" fill="#77FF00"/>
<path d="M339.263 62.0934L335.364 60.1215L336.138 55.944L340.025 57.901L339.263 62.0934Z" fill="#77FF00"/>
<path d="M337.698 70.7073L333.773 68.7012L334.56 64.461L338.472 66.4511L337.698 70.7073Z" fill="#77FF00"/>
<path d="M336.109 79.4501L332.159 77.4098L332.956 73.1068L336.895 75.13L336.109 79.4501Z" fill="#77FF00"/>
<path d="M334.496 88.3252L330.519 86.2496L331.329 81.8816L335.293 83.939L334.496 88.3252Z" fill="#77FF00"/>
<path d="M332.858 97.3349L328.855 95.2239L329.678 90.7898L333.668 92.8825L332.858 97.3349Z" fill="#91BEFF"/>
<path d="M331.197 106.484L327.167 104.336L328.001 99.8337L332.018 101.963L331.197 106.484Z" fill="#91BEFF"/>
<path d="M329.508 115.774L325.45 113.589L326.299 109.017L330.343 111.182L329.508 115.774Z" fill="#77FF00"/>
<path d="M327.794 125.209L323.707 122.986L324.569 118.342L328.641 120.546L327.794 125.209Z" fill="#77FF00"/>
<path d="M326.051 134.791L321.939 132.53L322.813 127.813L326.912 130.056L326.051 134.791Z" fill="#77FF00"/>
<path d="M324.282 144.527L320.141 142.225L321.03 137.434L325.157 139.716L324.282 144.527Z" fill="#77FF00"/>
<path d="M322.485 154.418L318.314 152.075L319.217 147.206L323.373 149.53L322.485 154.418Z" fill="#77FF00"/>
<path d="M304.973 152.143L230.912 114.06C230.287 113.732 229.756 113.254 229.365 112.667C228.974 112.081 228.736 111.405 228.674 110.703L227.8 77.1759C227.8 75.9403 229.676 75.1308 230.912 75.7491L305.869 113.236C306.493 113.563 307.024 114.042 307.415 114.629C307.806 115.215 308.044 115.89 308.106 116.592V150.428C308.039 150.762 307.901 151.077 307.699 151.352C307.498 151.626 307.238 151.853 306.94 152.016C306.641 152.18 306.31 152.276 305.971 152.298C305.631 152.319 305.291 152.266 304.973 152.143Z" fill="#91BEFF"/>
<path d="M304.973 152.143L230.017 114.656C229.393 114.329 228.861 113.85 228.47 113.263C228.079 112.677 227.842 112.002 227.78 111.3V77.4639C227.78 76.2284 228.781 75.7274 230.017 76.3456L304.973 113.832C305.598 114.159 306.13 114.638 306.521 115.225C306.911 115.811 307.149 116.486 307.211 117.188V151.025C307.211 152.26 306.209 152.761 304.973 152.143Z" fill="#353535"/>
<path d="M233.946 112.588C233.617 112.415 233.336 112.162 233.13 111.853C232.923 111.543 232.798 111.187 232.765 110.816V92.6331C232.765 91.9812 233.294 91.717 233.946 92.0433C234.275 92.2162 234.556 92.4689 234.762 92.7784C234.968 93.0879 235.094 93.4443 235.127 93.8147V111.998C235.127 112.65 234.598 112.914 233.946 112.588Z" fill="#77FF00"/>
<path d="M236.78 114.005C236.45 113.832 236.17 113.58 235.963 113.27C235.757 112.961 235.631 112.604 235.599 112.233V105.386C235.599 104.733 236.127 104.469 236.78 104.795C237.109 104.968 237.39 105.221 237.596 105.53C237.802 105.84 237.927 106.196 237.96 106.566V113.414C237.96 114.067 237.432 114.331 236.78 114.005Z" fill="#DF4640"/>
<path d="M244.808 118.02C244.479 117.847 244.198 117.595 243.992 117.285C243.786 116.976 243.66 116.619 243.627 116.249V98.0654C243.627 97.4135 244.156 97.1496 244.808 97.4755C245.138 97.6483 245.419 97.9011 245.625 98.2106C245.831 98.5201 245.957 98.8765 245.989 99.247V117.43C245.989 118.082 245.461 118.346 244.808 118.02Z" fill="#77FF00"/>
<path d="M247.643 119.438C247.313 119.265 247.032 119.012 246.826 118.703C246.62 118.393 246.494 118.037 246.462 117.666V105.151C246.462 104.499 246.99 104.234 247.643 104.56C247.972 104.733 248.252 104.986 248.459 105.295C248.665 105.605 248.79 105.961 248.823 106.331V118.847C248.823 119.499 248.295 119.764 247.643 119.438Z" fill="#DF4640"/>
<path d="M255.435 123.335C255.105 123.162 254.825 122.909 254.619 122.599C254.412 122.29 254.287 121.934 254.254 121.563V111.409C254.254 110.757 254.783 110.493 255.435 110.819C255.764 110.992 256.045 111.244 256.251 111.554C256.458 111.863 256.583 112.219 256.616 112.59V122.744C256.616 123.397 256.087 123.661 255.435 123.335Z" fill="#DF4640"/>
<path d="M258.269 124.752C257.94 124.579 257.659 124.326 257.453 124.017C257.246 123.707 257.121 123.351 257.089 122.981V118.73C257.089 118.078 257.617 117.813 258.269 118.139C258.598 118.312 258.879 118.565 259.085 118.875C259.291 119.184 259.417 119.54 259.45 119.911V124.161C259.45 124.814 258.921 125.078 258.269 124.752Z" fill="#77FF00"/>
<path d="M267.006 129.122C266.677 128.949 266.396 128.696 266.19 128.386C265.984 128.077 265.858 127.721 265.825 127.35V105.861C265.825 105.209 266.354 104.945 267.006 105.271C267.335 105.443 267.616 105.696 267.822 106.006C268.029 106.315 268.154 106.671 268.187 107.042V128.531C268.187 129.184 267.658 129.447 267.006 129.122Z" fill="#DF4640"/>
<path d="M269.84 130.538C269.511 130.366 269.23 130.113 269.024 129.804C268.817 129.494 268.692 129.138 268.659 128.768V124.517C268.659 123.865 269.188 123.6 269.84 123.926C270.169 124.099 270.45 124.352 270.656 124.661C270.863 124.971 270.988 125.327 271.021 125.698V129.948C271.021 130.6 270.492 130.865 269.84 130.538Z" fill="#77FF00"/>
<path d="M277.633 134.436C277.304 134.263 277.023 134.011 276.817 133.701C276.61 133.392 276.485 133.035 276.452 132.665V111.175C276.452 110.523 276.981 110.259 277.633 110.585C277.963 110.758 278.243 111.011 278.449 111.32C278.656 111.629 278.781 111.986 278.814 112.356V133.846C278.814 134.498 278.285 134.762 277.633 134.436Z" fill="#77FF00"/>
<path d="M280.467 135.853C280.137 135.68 279.857 135.428 279.65 135.118C279.444 134.809 279.319 134.452 279.286 134.082V118.024C279.286 117.372 279.815 117.108 280.467 117.434C280.796 117.607 281.077 117.859 281.283 118.169C281.489 118.478 281.615 118.835 281.647 119.205V135.263C281.647 135.915 281.119 136.179 280.467 135.853Z" fill="#DF4640"/>
<path d="M288.732 139.987C288.402 139.814 288.122 139.561 287.916 139.251C287.709 138.942 287.584 138.586 287.551 138.215V116.725C287.551 116.074 288.08 115.81 288.732 116.136C289.061 116.308 289.342 116.561 289.548 116.871C289.754 117.18 289.88 117.536 289.912 117.907V139.396C289.912 140.049 289.384 140.313 288.732 139.987Z" fill="#DF4640"/>
<path d="M291.566 141.404C291.236 141.231 290.955 140.978 290.749 140.669C290.543 140.359 290.418 140.003 290.385 139.632V119.324C290.385 118.672 290.914 118.407 291.566 118.733C291.895 118.906 292.175 119.159 292.382 119.468C292.588 119.778 292.713 120.134 292.746 120.505V140.813C292.746 141.466 292.218 141.73 291.566 141.404Z" fill="#77FF00"/>
<path d="M298.211 144.727C297.882 144.555 297.601 144.302 297.395 143.992C297.189 143.683 297.064 143.327 297.031 142.956V124.773C297.031 124.121 297.559 123.856 298.211 124.183C298.541 124.355 298.821 124.608 299.028 124.918C299.234 125.227 299.359 125.584 299.392 125.954V144.137C299.392 144.789 298.863 145.053 298.211 144.727Z" fill="#DF4640"/>
<path d="M301.045 146.144C300.715 145.972 300.435 145.719 300.229 145.409C300.023 145.1 299.897 144.744 299.864 144.374V137.526C299.864 136.873 300.393 136.609 301.045 136.934C301.374 137.107 301.655 137.36 301.861 137.67C302.068 137.979 302.193 138.336 302.226 138.706V145.554C302.226 146.207 301.698 146.471 301.045 146.144Z" fill="#77FF00"/>
<path d="M284.361 180.003L234.538 153.808C234.105 153.58 233.736 153.248 233.465 152.841C233.193 152.434 233.029 151.965 232.986 151.478L231.849 128.075C231.849 127.217 233.681 126.158 234.538 126.587L285.497 152.073C285.93 152.3 286.299 152.632 286.571 153.039C286.842 153.446 287.007 153.915 287.05 154.402V178.516C287.05 179.374 285.218 180.432 284.361 180.003Z" fill="#91BEFF"/>
<path d="M284.361 180.003L233.402 154.519C232.969 154.291 232.6 153.959 232.328 153.552C232.057 153.145 231.892 152.676 231.849 152.189V128.075C231.849 127.217 232.544 126.869 233.402 127.298L284.361 152.784C284.794 153.011 285.163 153.343 285.434 153.751C285.706 154.158 285.871 154.626 285.914 155.114V179.227C285.914 180.085 285.218 180.432 284.361 180.003Z" fill="#353535"/>
<path d="M253.041 139.904L242.82 134.792V133.231L253.041 138.343V139.904Z" fill="#77FF00"/>
<path d="M257.863 142.315L253.986 140.377V138.816L257.863 140.755V142.315Z" fill="#77FF00"/>
<path d="M262.73 144.75L258.855 142.812V141.25L262.73 143.188V144.75Z" fill="#DF4640"/>
<path d="M267.598 147.184L263.721 145.246V143.685L267.598 145.622V147.184Z" fill="#DF4640"/>
<path d="M272.465 149.618L268.589 147.68V146.118L272.465 148.057V149.618Z" fill="#DF4640"/>
<path d="M261.186 147.149L250.965 142.038V140.476L261.186 145.588V147.149Z" fill="#77FF00"/>
<path d="M272.353 152.734L262.132 147.623V146.061L272.353 151.173V152.734Z" fill="#77FF00"/>
<path d="M283.52 158.319L273.299 153.206V151.645L283.52 156.758V158.319Z" fill="#77FF00"/>
<path d="M253.041 146.247L242.82 141.136V139.574L253.041 144.686V146.247Z" fill="#77FF00"/>
<path d="M238.208 142.001L235.686 140.739V139.177L238.208 140.44V142.001Z" fill="#6197ED"/>
<path d="M238.208 145.173L235.686 143.91V142.349L238.208 143.61V145.173Z" fill="#6197ED"/>
<path d="M245.907 152.194L235.686 147.082V145.521L245.907 150.632V152.194Z" fill="#6197ED"/>
<path d="M253.25 159.038L242.425 153.624V152.062L253.25 157.477V159.038Z" fill="#77FF00"/>
<path d="M258.085 161.456L253.991 159.408V157.847L258.085 159.894V161.456Z" fill="#77FF00"/>
<path d="M258.085 164.627L253.991 162.579V161.017L258.085 163.066V164.627Z" fill="#DF4640"/>
<path d="M263.604 164.215L259.508 162.167V160.606L263.604 162.654V164.215Z" fill="#77FF00"/>
<path d="M260.943 166.056L259.508 165.339V163.777L260.943 164.495V166.056Z" fill="#DF4640"/>
<path d="M263.347 167.259L261.912 166.541V164.979L263.347 165.698V167.259Z" fill="#77FF00"/>
<path d="M265.751 168.461L264.316 167.744V166.183L265.751 166.9V168.461Z" fill="#77FF00"/>
<path d="M268.155 169.663L266.721 168.946V167.385L268.155 168.102V169.663Z" fill="#77FF00"/>
<path d="M270.559 170.865L269.125 170.148V168.587L270.559 169.305V170.865Z" fill="#77FF00"/>
<path d="M269.121 166.975L265.026 164.927V163.366L269.121 165.414V166.975Z" fill="#77FF00"/>
<path d="M274.639 169.735L270.543 167.686V166.126L274.639 168.173V169.735Z" fill="#77FF00"/>
<path d="M253.25 162.209L242.425 156.795V155.234L253.25 160.648V162.209Z" fill="#77FF00"/>
<path d="M234.4 130.582L233.227 129.996V128.434L234.4 129.02V130.582Z" fill="#6197ED"/>
<path d="M234.4 133.753L233.227 133.166V131.606L234.4 132.192V133.753Z" fill="#6197ED"/>
<path d="M234.4 136.925L233.227 136.338V134.776L234.4 135.364V136.925Z" fill="#6197ED"/>
<path d="M234.4 140.097L233.227 139.509V137.949L234.4 138.535V140.097Z" fill="#6197ED"/>
<path d="M234.4 143.268L233.227 142.681V141.12L234.4 141.706V143.268Z" fill="#6197ED"/>
<path d="M234.4 146.439L233.227 145.853V144.291L234.4 144.878V146.439Z" fill="#6197ED"/>
<path d="M234.4 149.61L233.227 149.024V147.463L234.4 148.049V149.61Z" fill="#6197ED"/>
<path d="M234.4 152.782L233.227 152.196V150.633L234.4 151.221V152.782Z" fill="#6197ED"/>
<path d="M581.851 264.801L435.403 189.518C434.533 189.061 433.792 188.394 433.247 187.577C432.702 186.759 432.371 185.818 432.284 184.84L431.054 151.008C431.054 149.286 433.68 147.323 435.403 148.184L583.082 222.039C583.952 222.496 584.693 223.163 585.238 223.981C585.783 224.798 586.114 225.739 586.2 226.717V261.815C586.2 265 583.574 265.663 581.851 264.801Z" fill="#91BEFF"/>
<path d="M581.851 264.801L434.172 190.946C433.302 190.489 432.561 189.822 432.016 189.005C431.471 188.187 431.14 187.246 431.054 186.268V151.171C431.054 149.449 432.45 148.75 434.172 149.612L581.851 223.468C582.721 223.924 583.462 224.591 584.007 225.409C584.552 226.226 584.883 227.167 584.97 228.145V263.243C584.97 264.965 583.574 265.663 581.851 264.801Z" fill="#353535"/>
<path d="M471.488 175.747L444.822 162.411V159.351L471.488 172.687V175.747Z" fill="#DF4640"/>
<path d="M471.488 181.962L444.822 168.627V165.567L471.488 178.902V181.962Z" fill="#77FF00"/>
<path d="M490.099 197.486L463.433 184.151V181.091L490.099 194.426V197.486Z" fill="#77FF00"/>
<path d="M519.234 212.057L492.567 198.721V195.66L519.234 208.997V212.057Z" fill="#77FF00"/>
<path d="M548.368 226.626L521.701 213.291V210.231L548.368 223.567V226.626Z" fill="#77FF00"/>
<path d="M577.502 241.197L550.836 227.86V224.8L577.502 238.137V241.197Z" fill="#77FF00"/>
<path d="M500.768 209.038L474.102 195.702V192.641L500.768 205.978V209.038Z" fill="#77FF00"/>
<path d="M523.219 220.266L503.236 210.272V207.212L523.219 217.206V220.266Z" fill="#77FF00"/>
<path d="M545.704 231.51L525.72 221.517V218.457L545.704 228.45V231.51Z" fill="#77FF00"/>
<path d="M568.188 242.755L548.206 232.762V229.702L568.188 239.695V242.755Z" fill="#77FF00"/>
<path d="M490.099 209.918L463.433 196.582V193.522L490.099 206.858V209.918Z" fill="#DF4640"/>
<path d="M502.679 216.209L492.567 211.152V208.092L502.679 213.149V216.209Z" fill="#77FF00"/>
<path d="M515.378 222.56L505.266 217.504V214.444L515.378 219.501V222.56Z" fill="#77FF00"/>
<path d="M528.077 228.911L517.965 223.855V220.794L528.077 225.851V228.911Z" fill="#77FF00"/>
<path d="M540.776 235.262L530.664 230.205V227.145L540.776 232.202V235.262Z" fill="#77FF00"/>
<path d="M441.467 160.733L438.407 159.203V156.143L441.467 157.672V160.733Z" fill="#DF4640"/>
<path d="M441.467 166.949L438.407 165.418V162.359L441.467 163.889V166.949Z" fill="#77FF00"/>
<path d="M441.467 173.166L438.407 171.634V168.574L441.467 170.105V173.166Z" fill="#77FF00"/>
<path d="M441.467 179.381L438.407 177.851V174.791L441.467 176.32V179.381Z" fill="#77FF00"/>
<path d="M441.467 185.597L438.407 184.066V181.006L441.467 182.537V185.597Z" fill="#DF4640"/>
<path d="M351.066 123.769L264.126 78.5711C263.328 78.1522 262.647 77.5397 262.147 76.7896C261.647 76.0396 261.344 75.1761 261.264 74.2782L259.702 50.8375C259.702 49.257 262.546 47.9809 264.126 48.7713L352.627 93.0311C353.425 93.45 354.105 94.0625 354.605 94.8126C355.105 95.5627 355.409 96.4264 355.488 97.3243V121.4C355.426 121.887 355.248 122.352 354.969 122.756C354.691 123.16 354.32 123.492 353.887 123.724C353.454 123.956 352.973 124.081 352.482 124.089C351.991 124.097 351.506 123.987 351.066 123.769Z" fill="#91BEFF"/>
<path d="M351.065 123.769L262.565 79.5093C261.767 79.0905 261.086 78.4781 260.586 77.7281C260.086 76.9781 259.783 76.1145 259.703 75.2167V51.14C259.655 49.2474 260.982 48.9075 262.565 49.7092L351.065 93.9693C351.864 94.3881 352.544 95.0007 353.044 95.7508C353.544 96.5009 353.848 97.3645 353.927 98.2624V122.339C353.927 123.919 352.646 124.56 351.065 123.769Z" fill="#353535"/>
<path d="M274.081 59.3654L268.725 56.6875V54.4716L274.081 57.1506V59.3654Z" fill="#DF4640"/>
<path d="M274.081 63.8656L268.725 61.1878V58.9719L274.081 61.6509V63.8656Z" fill="#77FF00"/>
<path d="M290.427 76.5419L268.725 65.6881V63.4722L290.427 74.326V76.5419Z" fill="#77FF00"/>
<path d="M306.02 88.8407L283.035 77.3448V75.13L306.02 86.6248V88.8407Z" fill="#77FF00"/>
<path d="M316.285 93.974L307.59 89.6254V87.4094L316.285 91.7592V93.974Z" fill="#77FF00"/>
<path d="M316.285 98.4754L307.59 94.1256V91.9108L316.285 96.2594V98.4754Z" fill="#77FF00"/>
<path d="M328.001 99.8337L319.305 95.4839V93.2691L328.001 97.6177V99.8337Z" fill="#77FF00"/>
<path d="M322.352 101.509L319.305 99.9854V97.7694L322.352 99.2931V101.509Z" fill="#77FF00"/>
<path d="M327.457 104.063L324.41 102.538V100.323L327.457 101.847V104.063Z" fill="#77FF00"/>
<path d="M332.562 106.615L329.515 105.091V102.875L332.562 104.399V106.615Z" fill="#77FF00"/>
<path d="M337.667 109.167L334.619 107.644V105.429L337.667 106.952V109.167Z" fill="#77FF00"/>
<path d="M342.771 111.721L339.724 110.197V107.981L342.771 109.505V111.721Z" fill="#77FF00"/>
<path d="M339.717 105.692L331.021 101.344V99.1277L339.717 103.476V105.692Z" fill="#77FF00"/>
<path d="M351.433 111.551L342.737 107.202V104.987L351.433 109.336V111.551Z" fill="#77FF00"/>
<path d="M306.02 93.341L283.035 81.8451V79.6303L306.02 91.1251V93.341Z" fill="#77FF00"/>
<path d="M291.431 90.5457L283.035 86.3465V84.1306L291.431 88.3298V90.5457Z" fill="#DF4640"/>
<path d="M265.995 55.3224L263.506 54.0759V51.8611L265.995 53.1065V55.3224Z" fill="#77FF00"/>
<path d="M265.995 59.8227L263.506 58.5773V56.3614L265.995 57.6068V59.8227Z" fill="#77FF00"/>
<path d="M265.995 64.323L263.506 63.0776V60.8616L265.995 62.107V64.323Z" fill="#77FF00"/>
<path d="M265.995 68.8232L263.506 67.5779V65.3631L265.995 66.6073V68.8232Z" fill="#77FF00"/>
<path d="M265.995 73.3247L263.506 72.0793V69.8634L265.995 71.1087V73.3247Z" fill="#77FF00"/>
<path d="M265.995 77.8249L263.506 76.5796V74.3636L265.995 75.609V77.8249Z" fill="#DF4640"/>
<path d="M245.392 180.21L189.198 150.556C188.621 150.253 188.129 149.811 187.768 149.268C187.406 148.726 187.187 148.102 187.129 147.453L185.767 90.7658C185.767 89.2606 188.055 88.2911 189.198 88.8627L246.754 117.647C247.331 117.95 247.823 118.393 248.185 118.935C248.546 119.477 248.765 120.101 248.823 120.75V178.307C248.762 178.68 248.618 179.034 248.401 179.343C248.184 179.652 247.899 179.908 247.569 180.091C247.239 180.274 246.871 180.38 246.494 180.401C246.117 180.422 245.74 180.356 245.392 180.21Z" fill="#91BEFF"/>
<path d="M245.392 180.21L187.835 151.426C187.258 151.123 186.766 150.68 186.405 150.138C186.044 149.596 185.824 148.972 185.767 148.323V90.7658C185.767 89.6236 186.693 89.1606 187.835 89.7319L245.392 118.517C245.969 118.819 246.46 119.262 246.822 119.804C247.183 120.346 247.403 120.97 247.461 121.619V179.176C247.461 180.318 246.534 180.781 245.392 180.21Z" fill="#353535"/>
<path d="M239.983 155.575L219.467 145.314C218.671 144.897 217.993 144.286 217.494 143.538C216.996 142.79 216.693 141.928 216.613 141.033V113.915C216.613 112.339 217.891 111.701 219.467 112.489L239.983 122.749C240.78 123.167 241.458 123.778 241.957 124.526C242.455 125.274 242.758 126.135 242.838 127.03V154.148C242.838 155.724 241.56 156.363 239.983 155.575Z" fill="#77FF00"/>
<path d="M193.435 101.894L187.911 99.1311V96.3336L193.435 99.0958V101.894Z" fill="#77FF00"/>
<path d="M196.759 108.973L187.911 104.548V101.751L196.759 106.176V108.973Z" fill="#DF4640"/>
<path d="M193.435 112.727L187.911 109.964V107.167L193.435 109.929V112.727Z" fill="#77FF00"/>
<path d="M199.521 115.771L193.997 113.008V110.211L199.521 112.973V115.771Z" fill="#77FF00"/>
<path d="M205.955 118.989L200.432 116.227V113.428L205.955 116.191V118.989Z" fill="#77FF00"/>
<path d="M203.355 112.272L197.831 109.509V106.712L203.355 109.475V112.272Z" fill="#DF4640"/>
<path d="M212.39 122.207L206.867 119.444V116.646L212.39 119.41V122.207Z" fill="#77FF00"/>
<path d="M193.435 118.144L187.911 115.382V112.583L193.435 115.346V118.144Z" fill="#77FF00"/>
<path d="M199.521 121.188L193.997 118.424V115.627L199.521 118.39V121.188Z" fill="#91BEFF"/>
<path d="M203.193 128.44L197.67 125.678V122.88L203.193 125.642V128.44Z" fill="#77FF00"/>
<path d="M196.304 124.995L187.911 120.798V118L196.304 122.197V124.995Z" fill="#77FF00"/>
<path d="M193.435 128.977L187.911 126.214V123.416L193.435 126.178V128.977Z" fill="#77FF00"/>
<path d="M200.432 132.475L194.908 129.713V126.915L200.432 129.677V132.475Z" fill="#77FF00"/>
<path d="M207.428 135.975L201.905 133.212V130.415L207.428 133.177V135.975Z" fill="#77FF00"/>
<path d="M214.425 139.474L208.901 136.712V133.914L214.425 136.676V139.474Z" fill="#77FF00"/>
<path d="M193.435 134.393L187.911 131.63V128.833L193.435 131.596V134.393Z" fill="#77FF00"/>
<path d="M200.432 137.892L194.908 135.13V132.331L200.432 135.095V137.892Z" fill="#77FF00"/>
<path d="M207.428 141.391L201.905 138.629V135.831L207.428 138.594V141.391Z" fill="#77FF00"/>
<path d="M200.92 143.552L187.911 137.047V134.25L200.92 140.755V143.552Z" fill="#77FF00"/>
<path d="M214.914 150.551L201.905 144.045V141.247L214.914 147.754V150.551Z" fill="#77FF00"/>
<path d="M228.906 157.549L215.898 151.043V148.245L228.906 154.752V157.549Z" fill="#77FF00"/>
<path d="M236.95 161.572L232.323 159.258V156.46L236.95 158.774V161.572Z" fill="#77FF00"/>
<path d="M193.435 145.227L187.911 142.463V139.666L193.435 142.429V145.227Z" fill="#77FF00"/>
<path d="M200.432 148.725L194.908 145.962V143.165L200.432 145.928V148.725Z" fill="#77FF00"/>
<path d="M207.428 152.224L201.905 149.461V146.665L207.428 149.427V152.224Z" fill="#77FF00"/>
<path d="M214.425 155.723L208.901 152.961V150.164L214.425 152.926V155.723Z" fill="#77FF00"/>
<path d="M193.435 150.643L187.911 147.879V145.083L193.435 147.845V150.643Z" fill="#DF4640"/>
<path d="M401.284 245.177L350.824 219.035C350.391 218.808 350.022 218.475 349.751 218.068C349.479 217.661 349.314 217.192 349.271 216.705L348.348 193.05C348.348 192.192 349.966 191.386 350.824 191.814L401.782 217.299C402.216 217.527 402.585 217.859 402.856 218.266C403.128 218.673 403.292 219.142 403.336 219.629V243.743C403.336 244.601 402.142 245.606 401.284 245.177Z" fill="#91BEFF"/>
<path d="M400.86 244.978L349.901 219.494C349.468 219.266 349.099 218.934 348.827 218.527C348.556 218.12 348.391 217.651 348.348 217.164V193.05C348.348 192.192 349.044 191.845 349.901 192.273L400.86 217.758C401.293 217.985 401.662 218.318 401.934 218.725C402.205 219.132 402.37 219.601 402.413 220.088V244.202C402.413 245.06 401.718 245.407 400.86 244.978Z" fill="#353535"/>
<path d="M350.191 202.93V194.081L352.989 195.48V204.328L350.191 202.93Z" fill="#77FF00"/>
<path d="M357.745 206.707V197.859L360.542 199.257V208.106L357.745 206.707Z" fill="#77FF00"/>
<path d="M365.299 210.484V201.636L368.097 203.036V211.883L365.299 210.484Z" fill="#DF4640"/>
<path d="M372.852 214.262V205.413L375.65 206.813V215.662L372.852 214.262Z" fill="#77FF00"/>
<path d="M380.406 218.04V209.192L383.203 210.59V219.439L380.406 218.04Z" fill="#DF4640"/>
<path d="M387.959 221.817V212.969L390.757 214.368V223.216L387.959 221.817Z" fill="#77FF00"/>
<path d="M395.513 225.595V216.746L398.311 218.146V226.995L395.513 225.595Z" fill="#DF4640"/>
<path d="M354.294 214.911V206.062L357.091 207.462V216.311L354.294 214.911Z" fill="#DF4640"/>
<path d="M361.847 218.689V209.841L364.644 211.24V220.088L361.847 218.689Z" fill="#77FF00"/>
<path d="M369.401 222.467V213.618L372.199 215.017V223.865L369.401 222.467Z" fill="#DF4640"/>
<path d="M376.955 226.244V217.396L379.752 218.795V227.643L376.955 226.244Z" fill="#77FF00"/>
<path d="M384.508 230.021V221.174L387.306 222.573V231.421L384.508 230.021Z" fill="#77FF00"/>
<path d="M392.061 233.8V224.951L394.859 226.35V235.199L392.061 233.8Z" fill="#77FF00"/>
<path d="M399.615 237.577V228.729L402.413 230.129V238.976L399.615 237.577Z" fill="#77FF00"/>
<path d="M350.844 219.965V213.331L353.641 214.73V221.364L350.844 219.965Z" fill="#77FF00"/>
<path d="M358.398 223.742V217.108L361.195 218.507V225.141L358.398 223.742Z" fill="#77FF00"/>
<path d="M365.951 227.52V220.885L368.749 222.284V228.92L365.951 227.52Z" fill="#DF4640"/>
<path d="M373.505 231.298V224.663L376.302 226.063V232.697L373.505 231.298Z" fill="#77FF00"/>
<path d="M381.058 235.076V228.441L383.856 229.84V236.474L381.058 235.076Z" fill="#DF4640"/>
<path d="M388.612 238.853V232.218L391.409 233.617V240.252L388.612 238.853Z" fill="#6197ED"/>
<path d="M396.166 242.63V235.996L398.963 237.396V244.03L396.166 242.63Z" fill="#6197ED"/>
<path d="M480.837 269.362L429.885 243.251C429.525 243.062 429.218 242.786 428.993 242.448C428.768 242.111 428.631 241.721 428.595 241.317L427.981 221.639C427.981 220.927 429.172 220.468 429.885 220.824L481.327 246.551C481.687 246.74 481.993 247.015 482.218 247.353C482.444 247.691 482.581 248.08 482.616 248.485V268.333C482.583 268.527 482.507 268.71 482.395 268.871C482.283 269.032 482.137 269.166 481.967 269.264C481.797 269.362 481.608 269.421 481.413 269.438C481.218 269.455 481.021 269.429 480.837 269.362Z" fill="#91BEFF"/>
<path d="M480.713 269.305L429.27 243.578C428.911 243.389 428.604 243.114 428.379 242.776C428.154 242.438 428.017 242.049 427.981 241.644V221.795C427.981 221.084 428.559 220.795 429.27 221.151L480.713 246.878C481.073 247.067 481.379 247.343 481.605 247.681C481.83 248.019 481.967 248.408 482.003 248.812V268.661C482.003 269.373 481.425 269.662 480.713 269.305Z" fill="#353535"/>
<path d="M438.602 242.578V239.557L433.447 236.978V235.989L438.399 231.378L440.02 232.188V239.088L441.575 239.866V241.043L440.02 240.265V243.287L438.602 242.578ZM438.602 238.38V234.675C438.602 234.09 438.618 233.521 438.651 232.955L438.602 232.931C438.261 233.41 437.987 233.75 437.682 234.11L434.967 236.524V236.561L438.602 238.38Z" fill="#77FF00"/>
<path d="M443.082 243.095C443.784 243.875 444.615 244.527 445.538 245.025C447.471 245.992 448.069 245.062 448.05 244.125C448.033 242.564 446.632 241.197 445.184 240.472L444.347 240.054V238.931L445.184 239.349C446.274 239.895 447.659 240.024 447.659 238.705C447.615 238.126 447.41 237.571 447.065 237.104C446.721 236.636 446.252 236.275 445.713 236.061C445.032 235.699 444.253 235.566 443.491 235.684L443.098 234.395C444.105 234.287 445.119 234.495 446.002 234.991C446.864 235.345 447.615 235.927 448.174 236.673C448.733 237.42 449.08 238.303 449.178 239.231C449.178 240.373 448.496 241.006 447.129 240.817V240.847C447.826 241.295 448.412 241.897 448.841 242.606C449.27 243.315 449.531 244.112 449.604 244.938C449.604 246.712 448.221 247.578 445.558 246.246C444.471 245.695 443.493 244.951 442.672 244.05L443.082 243.095Z" fill="#77FF00"/>
<path d="M456.49 243.547C456.49 245.89 455.261 246.436 453.823 245.717C453.01 245.251 452.339 244.573 451.882 243.755C451.425 242.937 451.199 242.01 451.228 241.074C451.228 238.853 452.441 238.211 453.911 238.947C454.729 239.395 455.404 240.064 455.86 240.877C456.316 241.691 456.534 242.616 456.49 243.547ZM452.426 241.62C452.356 242.235 452.452 242.857 452.705 243.422C452.957 243.987 453.357 244.474 453.862 244.832C454.852 245.327 455.293 244.489 455.293 243.022C455.367 242.41 455.273 241.79 455.021 241.228C454.768 240.666 454.368 240.183 453.862 239.832C452.921 239.361 452.426 240.22 452.426 241.62V241.62ZM453.722 250.329L460.249 242.116L461.203 242.594L454.68 250.808L453.722 250.329ZM463.714 251.758C463.714 254.097 462.484 254.643 461.066 253.935C460.255 253.47 459.585 252.795 459.128 251.979C458.671 251.164 458.443 250.24 458.469 249.306C458.469 247.068 459.686 246.429 461.153 247.163C461.969 247.611 462.641 248.28 463.094 249.092C463.547 249.905 463.762 250.829 463.714 251.758V251.758ZM459.652 249.829C459.59 250.445 459.692 251.066 459.947 251.631C460.202 252.195 460.6 252.682 461.102 253.044C462.088 253.537 462.532 252.701 462.532 251.233C462.606 250.621 462.512 250.001 462.26 249.438C462.008 248.876 461.608 248.392 461.102 248.04C460.162 247.57 459.652 248.429 459.652 249.829V249.829Z" fill="#77FF00"/>
<path d="M471.175 249.879L470.19 248.402L465.772 250.611L465.778 250.619L465.772 250.623L470.19 257.25L471.175 256.758L467.736 251.599L471.175 249.879Z" fill="#DF4640"/>
<path d="M474.696 258.518L475.68 259.996L480.098 257.787L480.094 257.778L480.098 257.776L475.68 251.147L474.696 251.64L478.136 256.8L474.696 258.518Z" fill="#DF4640"/>
<path d="M438.982 280.757L388.72 254.924C388.287 254.697 387.917 254.364 387.646 253.957C387.375 253.55 387.21 253.082 387.167 252.594L386.374 228.672C386.374 227.814 387.862 227.275 388.72 227.704L439.678 253.189C440.111 253.416 440.48 253.749 440.752 254.156C441.023 254.563 441.188 255.031 441.231 255.519V279.633C441.231 280.49 439.84 281.186 438.982 280.757Z" fill="#91BEFF"/>
<path d="M438.88 280.71L387.922 255.225C387.489 254.998 387.12 254.665 386.848 254.258C386.577 253.851 386.412 253.383 386.369 252.895V228.781C386.369 227.923 387.064 227.576 387.922 228.005L438.88 253.49C439.314 253.717 439.683 254.049 439.954 254.456C440.226 254.864 440.391 255.332 440.434 255.819V279.934C440.434 280.791 439.738 281.139 438.88 280.71Z" fill="#353535"/>
<path d="M395.25 238.42L390.768 236.178V233.485L395.25 235.726V238.42Z" fill="#DF4640"/>
<path d="M401.857 241.724L397.374 239.482V236.788L401.857 239.03V241.724Z" fill="#DF4640"/>
<path d="M408.462 245.026L403.979 242.785V240.092L408.462 242.334V245.026Z" fill="#DF4640"/>
<path d="M399.733 246.133L390.768 241.65V238.956L399.733 243.439V246.133Z" fill="#77FF00"/>
<path d="M405.99 254.733L397.025 250.25V247.557L405.99 252.04V254.733Z" fill="#77FF00"/>
<path d="M415.784 259.631L406.82 255.148V252.454L415.784 256.937V259.631Z" fill="#77FF00"/>
<path d="M425.578 264.53L416.614 260.046V257.353L425.578 261.837V264.53Z" fill="#77FF00"/>
<path d="M435.373 269.428L426.409 264.945V262.252L435.373 266.735V269.428Z" fill="#77FF00"/>
<path d="M409.577 261.999L400.613 257.516V254.822L409.577 259.305V261.999Z" fill="#77FF00"/>
<path d="M417.124 265.773L410.407 262.414V259.72L417.124 263.08V265.773Z" fill="#77FF00"/>
<path d="M424.683 269.554L417.965 266.195V263.501L424.683 266.861V269.554Z" fill="#77FF00"/>
<path d="M432.242 273.334L425.525 269.974V267.28L432.242 270.64V273.334Z" fill="#77FF00"/>
<path d="M389.641 235.614L388.612 235.1V232.406L389.641 232.92V235.614Z" fill="#DF4640"/>
<path d="M389.641 241.085L388.612 240.571V237.878L389.641 238.392V241.085Z" fill="#77FF00"/>
<path d="M389.641 246.557L388.612 246.043V243.349L389.641 243.863V246.557Z" fill="#77FF00"/>
<path d="M389.641 252.029L388.612 251.515V248.821L389.641 249.335V252.029Z" fill="#77FF00"/>
<defs>
<linearGradient id="paint0_linear" x1="139.271" y1="256.179" x2="521.607" y2="256.179" gradientUnits="userSpaceOnUse">
<stop stop-color="#E8F1FF"/>
<stop offset="1" stop-color="#C4DAFF"/>
</linearGradient>
<linearGradient id="paint1_linear" x1="37541.9" y1="111921" x2="93055.8" y2="116853" gradientUnits="userSpaceOnUse">
<stop stop-color="#E8F1FF"/>
<stop offset="1" stop-color="#C4DAFF"/>
</linearGradient>
</defs>
</svg>
