<svg width="35" height="35" viewBox="0 0 35 35" fill="none" xmlns="http://www.w3.org/2000/svg">
<path d="M25.5133 17.5002L34.175 8.83851C34.7252 8.28881 34.9999 7.62106 34.9999 6.83516C34.9999 6.04947 34.7245 5.38182 34.175 4.83181L30.1684 0.824805C29.6185 0.275004 28.9508 0 28.1654 0C27.3793 0 26.7119 0.275004 26.1617 0.824805L17.5002 9.48645L8.83841 0.824805C8.28881 0.275004 7.62107 0 6.83506 0C6.04967 0 5.38182 0.275004 4.83171 0.824805L0.824909 4.83181C0.27521 5.38141 0 6.04947 0 6.83516C0 7.62106 0.274901 8.2885 0.824909 8.83851L9.48645 17.5002L0.824909 26.1618C0.27521 26.7119 0 27.3793 0 28.1655C0 28.9507 0.274901 29.6186 0.824909 30.1684L4.83181 34.1751C5.38182 34.7253 6.04978 35 6.83516 35C7.62106 35 8.2885 34.7246 8.83851 34.1751L17.5003 25.5134L26.1625 34.1751C26.7123 34.7253 27.3795 35 28.1662 35C28.9516 35 29.6193 34.7246 30.1692 34.1751L34.1751 30.1684C34.7253 29.619 35 28.9507 35 28.1655C35 27.3793 34.7253 26.7119 34.1751 26.1618L25.5133 17.5002Z" fill="#77FF00"/>
</svg>
