<svg width="32" height="32" viewBox="0 0 32 32" fill="none" xmlns="http://www.w3.org/2000/svg">
<circle cx="16" cy="16" r="16" fill="black"/>
<path d="M4.45581 22.2785L7.01047 10.4129H12.1009C12.883 10.4129 13.5643 10.4939 14.1446 10.6559C14.7375 10.8053 15.2232 11.0607 15.6017 11.422C15.9928 11.7832 16.2829 12.2566 16.4722 12.8421C16.674 13.4276 16.7749 14.1439 16.7749 14.991C16.7749 15.9004 16.6551 16.7911 16.4154 17.6631C16.1883 18.5351 15.8035 19.3137 15.2611 19.9988C14.7186 20.684 14.0058 21.2383 13.1227 21.6619C12.2522 22.073 11.1736 22.2785 9.88682 22.2785H4.45581ZM9.64082 20.9705C10.0571 20.9705 10.423 20.8023 10.7384 20.466C11.0664 20.1172 11.3439 19.6812 11.571 19.158C11.8107 18.6223 12.0062 18.0368 12.1576 17.4015C12.3216 16.7537 12.4478 16.1308 12.5361 15.5329C12.637 14.9349 12.7064 14.3993 12.7443 13.9259C12.7947 13.4525 12.82 13.1162 12.82 12.9169C12.82 12.5307 12.7379 12.2317 12.5739 12.0199C12.4226 11.7957 12.1513 11.6836 11.7602 11.6836H10.8519L8.82711 20.9705H9.64082Z" fill="#77FF00"/>
<path d="M22.1323 15.4395H22.2648C22.5045 15.2028 22.782 14.9848 23.0974 14.7855C23.3624 14.611 23.6777 14.4553 24.0436 14.3183C24.4094 14.1813 24.8195 14.1128 25.2736 14.1128C25.9296 14.1128 26.4721 14.2809 26.901 14.6173C27.33 14.9412 27.5444 15.3896 27.5444 15.9627C27.5444 16.1371 27.5255 16.3364 27.4876 16.5606C27.4498 16.7724 27.4056 17.0029 27.3552 17.252C27.3047 17.4887 27.248 17.7316 27.1849 17.9808C27.1344 18.2174 27.0903 18.4354 27.0524 18.6348L26.2576 22.2785H22.4162L23.457 17.4015C23.4822 17.2395 23.5137 17.0776 23.5516 16.9157C23.5894 16.7412 23.6084 16.5855 23.6084 16.4485C23.6084 16.2616 23.5579 16.1122 23.457 16C23.3687 15.8755 23.2299 15.8132 23.0407 15.8132C22.8136 15.8132 22.5928 15.8942 22.3783 16.0561C22.1765 16.218 22.0188 16.3613 21.9052 16.4859L20.6563 22.2785H16.7959L19.4831 9.72156H23.3623L22.1323 15.4395Z" fill="#77FF00"/>
</svg>
