<svg width="35" height="27" viewBox="0 0 35 27" fill="none" xmlns="http://www.w3.org/2000/svg">
<path d="M31.7791 0H3.22089C1.44491 0 0 1.44484 0 3.22308C0 4.99905 1.44491 6.44397 3.22089 6.44397H31.7791C33.5551 6.44397 35 4.99905 35 3.22308C35 1.44484 33.5551 0 31.7791 0Z" fill="#77FF00"/>
<path d="M31.7791 9.88477H3.22089C1.44491 9.88477 0 11.3296 0 13.1078C0 14.8838 1.44491 16.3287 3.22089 16.3287H31.7791C33.5551 16.3287 35 14.8838 35 13.1078C35 11.3296 33.5551 9.88477 31.7791 9.88477V9.88477Z" fill="#77FF00"/>
<path d="M31.7791 19.7694H3.22089C1.44491 19.7694 0 21.2143 0 22.9925C0 24.7685 1.44491 26.2134 3.22089 26.2134H31.7791C33.5551 26.2134 35 24.7685 35 22.9925C35 21.2143 33.5551 19.7694 31.7791 19.7694Z" fill="#77FF00"/>
</svg>
