<svg width="35" height="22" viewBox="0 0 35 22" fill="none" xmlns="http://www.w3.org/2000/svg">
<path d="M35.0003 18.2505V2.75937L24.8789 10.5048L35.0003 18.2505Z" fill="#77FF00"/>
<path d="M0 2.75865V18.2513L10.1212 10.5049L0 2.75865Z" fill="#77FF00"/>
<path d="M0.957344 0.908838C0.957344 0.908838 15.8907 12.3383 16.0227 12.4393C16.4502 12.7657 16.9614 12.9387 17.4998 12.9387C18.0384 12.9387 18.5489 12.7659 18.9762 12.4391C18.9762 12.4391 33.9056 1.01445 34.0434 0.908974C34.3635 0.663769 34.6109 0.351709 34.7741 0H0.22583C0.389209 0.351709 0.636875 0.663701 0.957344 0.908838Z" fill="#77FF00"/>
<path d="M34.0431 20.1008L23.1914 11.7961C23.1914 11.7961 20.275 14.0277 20.2207 14.0662C19.4341 14.6709 18.4928 14.9895 17.5 14.9895C16.5079 14.9895 15.5665 14.671 14.7774 14.0687L11.8082 11.7962C6.39403 15.9397 0.957412 20.1012 0.957412 20.1012C0.636943 20.3463 0.389277 20.6584 0.22583 21.01H34.7742C34.6109 20.6582 34.3634 20.346 34.0431 20.1008Z" fill="#77FF00"/>
</svg>
