<svg width="412" height="431" viewBox="0 0 412 431" fill="none" xmlns="http://www.w3.org/2000/svg">
<path style="mix-blend-mode:screen" d="M122.193 15.8254V189.77L411.875 357.741V183.713L122.193 15.8254Z" fill="url(#paint0_radial)"/>
<g style="mix-blend-mode:screen">
<g style="mix-blend-mode:screen">
<path d="M167.546 412.321L166.895 411.192L241.226 368.323L152.981 317.12C152.882 317.062 152.8 316.979 152.743 316.879C152.686 316.779 152.656 316.666 152.657 316.551C152.658 316.436 152.689 316.323 152.748 316.224C152.806 316.125 152.89 316.044 152.99 315.988L248.208 262.636V190.322C248.209 190.207 248.239 190.094 248.297 189.995C248.354 189.896 248.437 189.814 248.537 189.757C248.637 189.7 248.749 189.67 248.864 189.671C248.979 189.672 249.091 189.703 249.19 189.761L304.383 222.226V108.073L289.318 98.3197C289.224 98.2614 289.147 98.1803 289.094 98.0839C289.04 97.9875 289.013 97.879 289.013 97.7688V64.3672H290.315V97.4087L305.38 107.162C305.474 107.221 305.551 107.302 305.604 107.398C305.658 107.495 305.686 107.603 305.686 107.713V223.365C305.685 223.479 305.655 223.592 305.597 223.691C305.539 223.79 305.457 223.873 305.357 223.93C305.257 223.987 305.144 224.016 305.03 224.015C304.915 224.015 304.802 223.984 304.703 223.926L249.511 191.46V263.018C249.511 263.133 249.48 263.247 249.422 263.347C249.363 263.447 249.279 263.53 249.178 263.586L154.624 316.566L242.853 367.76C242.951 367.818 243.033 367.9 243.09 367.999C243.147 368.098 243.177 368.211 243.177 368.325C243.177 368.439 243.147 368.551 243.09 368.65C243.032 368.749 242.95 368.831 242.851 368.889L167.546 412.321Z" fill="#D5D5D5"/>
</g>
<g style="mix-blend-mode:screen">
<path d="M249.418 425.331L171.981 380.2C171.883 380.143 171.801 380.061 171.744 379.962C171.688 379.863 171.658 379.752 171.658 379.638C171.658 379.524 171.688 379.412 171.744 379.313C171.801 379.215 171.883 379.133 171.981 379.075L260.648 327.308C260.748 327.248 260.863 327.217 260.98 327.218C261.097 327.219 261.212 327.252 261.312 327.313L298.436 349.695L348.441 321.432V291.713L323.438 277.582C323.338 277.525 323.254 277.443 323.196 277.343C323.138 277.243 323.108 277.13 323.108 277.014V219.928C323.108 219.815 323.137 219.704 323.193 219.606C323.248 219.508 323.329 219.426 323.426 219.368C323.523 219.31 323.633 219.279 323.746 219.277C323.859 219.274 323.97 219.302 324.069 219.355L342.383 229.296V97.6663C342.383 97.5511 342.414 97.4378 342.472 97.3382C342.53 97.2386 342.613 97.1562 342.713 97.0994C342.814 97.0426 342.927 97.0135 343.042 97.0149C343.158 97.0164 343.27 97.0485 343.369 97.1079L373.658 115.282L372.989 116.399L343.686 98.8165V230.391C343.686 230.504 343.657 230.615 343.601 230.713C343.545 230.811 343.465 230.893 343.368 230.951C343.271 231.009 343.161 231.04 343.048 231.043C342.935 231.045 342.823 231.018 342.724 230.964L324.41 221.023V276.634L349.413 290.765C349.514 290.822 349.597 290.904 349.655 291.004C349.714 291.104 349.744 291.217 349.744 291.332V321.812C349.744 321.927 349.714 322.041 349.656 322.14C349.597 322.24 349.514 322.323 349.413 322.379L298.746 351.017C298.645 351.073 298.532 351.101 298.416 351.099C298.301 351.098 298.188 351.066 298.089 351.007L260.971 328.627L173.602 379.638L250.075 424.206L249.418 425.331Z" fill="#D5D5D5"/>
</g>
<g style="mix-blend-mode:screen">
<path d="M361.592 417.048L297.546 379.649C297.447 379.591 297.365 379.508 297.308 379.409C297.252 379.309 297.222 379.196 297.223 379.081C297.224 378.966 297.256 378.853 297.314 378.755C297.373 378.656 297.456 378.574 297.557 378.518L347.775 350.441L260.099 299.795C259.999 299.737 259.916 299.654 259.859 299.553C259.802 299.452 259.772 299.338 259.774 299.223C259.775 299.107 259.808 298.994 259.868 298.894C259.928 298.795 260.013 298.714 260.115 298.659L286.209 284.525V123.872C286.209 123.757 286.239 123.644 286.297 123.544C286.355 123.445 286.438 123.362 286.538 123.305C286.638 123.248 286.751 123.219 286.866 123.22C286.981 123.221 287.093 123.252 287.192 123.311L322.557 144.216V44.7971H323.86V145.357C323.86 145.472 323.829 145.585 323.772 145.684C323.714 145.784 323.631 145.866 323.531 145.923C323.431 145.98 323.318 146.01 323.203 146.009C323.088 146.008 322.975 145.977 322.876 145.918L287.512 125.013V284.913C287.512 285.031 287.48 285.146 287.42 285.247C287.36 285.347 287.274 285.43 287.171 285.486L261.758 299.249L349.419 349.886C349.518 349.944 349.601 350.026 349.658 350.126C349.715 350.226 349.745 350.339 349.744 350.454C349.743 350.569 349.712 350.682 349.654 350.781C349.595 350.88 349.511 350.962 349.411 351.018L299.187 379.1L362.248 415.923L361.592 417.048Z" fill="#D5D5D5"/>
</g>
<g style="mix-blend-mode:screen">
<path d="M134.529 371.117L133.895 369.978L235.414 313.544L171.436 277.218C171.336 277.161 171.252 277.078 171.194 276.977C171.136 276.877 171.106 276.763 171.107 276.647C171.108 276.531 171.14 276.417 171.199 276.318C171.259 276.218 171.344 276.136 171.445 276.081L222.325 248.18V212.313C222.325 212.198 222.355 212.086 222.413 211.987C222.47 211.888 222.553 211.805 222.652 211.748C222.751 211.691 222.864 211.661 222.979 211.662C223.093 211.662 223.206 211.693 223.305 211.751L263.151 234.999V133.432L233.664 116.309C233.565 116.251 233.483 116.169 233.426 116.07C233.37 115.971 233.34 115.859 233.339 115.745V9H234.642V115.37L264.129 132.493C264.228 132.55 264.31 132.633 264.367 132.731C264.424 132.83 264.454 132.942 264.454 133.056V236.134C264.454 236.249 264.423 236.361 264.366 236.46C264.309 236.559 264.226 236.642 264.127 236.699C264.028 236.756 263.915 236.787 263.8 236.786C263.685 236.786 263.573 236.755 263.474 236.696L223.628 213.448V248.565C223.628 248.682 223.596 248.797 223.537 248.897C223.477 248.998 223.392 249.08 223.289 249.137L173.095 276.662L237.066 312.985C237.166 313.042 237.25 313.125 237.307 313.225C237.365 313.325 237.396 313.439 237.395 313.554C237.395 313.67 237.363 313.783 237.304 313.883C237.246 313.982 237.161 314.064 237.06 314.121L134.529 371.117Z" fill="#D5D5D5"/>
</g>
<g style="mix-blend-mode:screen">
<path d="M292.062 407.757L260.615 386.789C260.522 386.727 260.446 386.642 260.396 386.543C260.345 386.444 260.32 386.334 260.324 386.222C260.328 386.111 260.361 386.003 260.419 385.908C260.477 385.813 260.558 385.734 260.655 385.679L297.679 364.752L272.758 349.908C272.66 349.849 272.578 349.765 272.522 349.664C272.466 349.563 272.438 349.45 272.44 349.335C272.443 349.22 272.476 349.107 272.535 349.009C272.595 348.911 272.68 348.83 272.781 348.775L322.46 321.777L297.532 306.395C297.434 306.334 297.354 306.249 297.3 306.147C297.245 306.046 297.219 305.932 297.223 305.817C297.227 305.701 297.262 305.589 297.324 305.492C297.386 305.395 297.472 305.316 297.574 305.263L310.992 298.286V249.975C310.992 249.86 311.022 249.747 311.08 249.647C311.138 249.548 311.221 249.466 311.321 249.409C311.421 249.352 311.535 249.323 311.65 249.324C311.765 249.325 311.877 249.356 311.976 249.415L373.774 286.277V204.727C373.774 204.617 373.802 204.508 373.855 204.412C373.909 204.315 373.986 204.234 374.079 204.175C374.172 204.116 374.279 204.082 374.389 204.076C374.5 204.07 374.609 204.092 374.709 204.14L387.926 210.529L387.359 211.702L375.076 205.765V287.424C375.076 287.54 375.046 287.653 374.988 287.752C374.93 287.851 374.847 287.934 374.747 287.991C374.647 288.048 374.534 288.077 374.418 288.076C374.303 288.075 374.191 288.043 374.092 287.984L312.294 251.122V298.682C312.294 298.801 312.262 298.918 312.2 299.02C312.138 299.122 312.049 299.205 311.943 299.259L299.194 305.889L324.101 321.257C324.198 321.317 324.278 321.402 324.332 321.502C324.387 321.603 324.414 321.716 324.41 321.83C324.407 321.944 324.374 322.056 324.314 322.153C324.254 322.25 324.17 322.33 324.069 322.384L274.408 349.373L299.31 364.208C299.408 364.266 299.489 364.349 299.544 364.449C299.6 364.549 299.629 364.661 299.628 364.775C299.626 364.889 299.595 365.001 299.537 365.099C299.479 365.198 299.396 365.279 299.297 365.335L262.219 386.292L292.784 406.673L292.062 407.757Z" fill="#D5D5D5"/>
</g>
<g style="mix-blend-mode:screen">
<path d="M9.07801 328.892L8.43188 327.76L94.454 278.769L56.886 257.196C56.7863 257.139 56.7036 257.056 56.6461 256.957C56.5887 256.857 56.5587 256.744 56.559 256.629C56.5594 256.514 56.5902 256.401 56.6483 256.302C56.7064 256.203 56.7897 256.121 56.8898 256.064L147.983 204.471V132.157C147.983 132.043 148.013 131.931 148.07 131.832C148.127 131.733 148.209 131.651 148.307 131.594C148.406 131.536 148.518 131.506 148.632 131.506C148.746 131.505 148.859 131.535 148.958 131.591L197.542 159.328V118.044H198.845V160.45C198.845 160.564 198.815 160.676 198.758 160.775C198.701 160.874 198.619 160.956 198.521 161.013C198.422 161.071 198.31 161.101 198.196 161.102C198.082 161.102 197.97 161.073 197.871 161.016L149.286 133.279V204.852C149.286 204.967 149.255 205.08 149.197 205.18C149.139 205.28 149.055 205.362 148.955 205.419L58.5272 256.636L96.0899 278.206C96.1894 278.263 96.272 278.345 96.3295 278.445C96.3869 278.544 96.417 278.657 96.4169 278.772C96.4168 278.886 96.3863 278.999 96.3287 279.098C96.2711 279.198 96.1882 279.28 96.0886 279.337L9.07801 328.892Z" fill="#D5D5D5"/>
</g>
<g style="mix-blend-mode:screen">
<path d="M51.5197 401.365L50.7971 400.281L123.717 351.626L71.7623 322.172C71.6632 322.116 71.5806 322.035 71.5228 321.936C71.465 321.838 71.4339 321.727 71.4328 321.613C71.4316 321.499 71.4604 321.386 71.5162 321.287C71.572 321.188 71.6529 321.105 71.7508 321.046L133.201 284.477C133.3 284.418 133.414 284.387 133.529 284.386C133.645 284.385 133.758 284.415 133.859 284.472L178.047 309.906L255.274 266.439V222.6L223.225 205.425C223.121 205.37 223.034 205.287 222.974 205.186C222.913 205.085 222.881 204.969 222.881 204.852V161.896C222.881 161.783 222.91 161.672 222.966 161.574C223.022 161.476 223.102 161.394 223.199 161.336C223.296 161.279 223.407 161.247 223.519 161.245C223.632 161.243 223.744 161.27 223.843 161.324L242.157 171.266V45.4816C242.157 45.3663 242.187 45.2531 242.245 45.1534C242.303 45.0538 242.387 44.9714 242.487 44.9146C242.587 44.8578 242.701 44.8286 242.816 44.8301C242.931 44.8316 243.044 44.8637 243.143 44.9231L261.426 55.8967V39.9744H262.729V57.0467C262.729 57.1619 262.699 57.2752 262.641 57.3748C262.583 57.4744 262.499 57.5568 262.399 57.6136C262.299 57.6704 262.185 57.6995 262.07 57.6981C261.955 57.6966 261.842 57.6645 261.743 57.6052L243.46 46.6316V172.36C243.46 172.473 243.43 172.583 243.375 172.682C243.319 172.78 243.239 172.862 243.142 172.919C243.045 172.977 242.934 173.009 242.821 173.011C242.708 173.013 242.597 172.986 242.498 172.932L224.184 162.992V204.461L256.233 221.637C256.337 221.692 256.424 221.775 256.484 221.876C256.545 221.977 256.577 222.093 256.577 222.21V266.82C256.577 266.935 256.546 267.049 256.488 267.148C256.429 267.248 256.345 267.33 256.245 267.387L178.362 311.223C178.264 311.278 178.153 311.307 178.04 311.306C177.927 311.306 177.816 311.276 177.719 311.22L133.539 285.791L73.3805 321.592L125.28 351.016C125.377 351.071 125.458 351.149 125.516 351.244C125.574 351.339 125.606 351.448 125.61 351.559C125.614 351.67 125.589 351.78 125.539 351.879C125.488 351.978 125.413 352.062 125.32 352.124L51.5197 401.365Z" fill="#D5D5D5"/>
</g>
<g style="mix-blend-mode:screen">
<path d="M247.436 350.806L197.321 321.617C197.222 321.56 197.14 321.477 197.083 321.377C197.026 321.277 196.997 321.164 196.998 321.049C196.999 320.934 197.03 320.822 197.089 320.723C197.147 320.624 197.231 320.543 197.331 320.486L247.548 292.409L159.874 241.763C159.774 241.705 159.691 241.622 159.633 241.521C159.576 241.421 159.547 241.306 159.548 241.191C159.55 241.075 159.582 240.962 159.642 240.863C159.702 240.764 159.787 240.682 159.889 240.627L185.982 226.494V14.1101H187.285V226.881C187.285 226.999 187.254 227.114 187.194 227.215C187.133 227.315 187.047 227.398 186.944 227.454L161.533 241.217L249.192 291.854C249.292 291.912 249.374 291.995 249.431 292.094C249.489 292.194 249.518 292.307 249.518 292.422C249.517 292.538 249.486 292.65 249.427 292.749C249.368 292.848 249.285 292.93 249.184 292.986L198.963 321.067L248.093 349.681L247.436 350.806Z" fill="#D5D5D5"/>
</g>
<g style="mix-blend-mode:screen">
<path d="M45.6589 278.095C45.5422 278.094 45.4276 278.063 45.3268 278.004L8.42163 256.181L9.08574 255.058L45.669 276.693L108.789 241.626L71.1998 219.18C71.1011 219.121 71.0198 219.037 70.9639 218.937C70.9081 218.837 70.8797 218.723 70.8818 218.608C70.8839 218.494 70.9163 218.381 70.9757 218.283C71.0352 218.185 71.1195 218.104 71.2203 218.049L122.099 190.148V160.794C122.099 160.68 122.129 160.567 122.187 160.468C122.245 160.369 122.328 160.286 122.427 160.229C122.527 160.173 122.64 160.143 122.755 160.144C122.869 160.144 122.982 160.175 123.081 160.233L159.548 181.684V40.3967L108.656 11.6016L109.297 10.4668L160.52 39.4489C160.621 39.5057 160.704 39.5881 160.763 39.6879C160.821 39.7876 160.851 39.9009 160.851 40.0164V182.823C160.851 182.938 160.82 183.051 160.763 183.15C160.705 183.249 160.622 183.331 160.523 183.388C160.423 183.445 160.31 183.475 160.195 183.474C160.08 183.473 159.968 183.442 159.869 183.384L123.401 161.933V190.534C123.401 190.65 123.37 190.765 123.31 190.866C123.251 190.966 123.165 191.049 123.063 191.105L72.8435 218.644L110.427 241.086C110.525 241.145 110.606 241.229 110.662 241.329C110.718 241.429 110.746 241.541 110.745 241.656C110.743 241.77 110.711 241.883 110.653 241.981C110.594 242.079 110.51 242.16 110.41 242.216L45.9757 278.013C45.8787 278.067 45.7697 278.095 45.6589 278.095V278.095Z" fill="#D5D5D5"/>
</g>
<g style="mix-blend-mode:screen">
<path d="M151.265 333.435L111.712 310.35C111.613 310.292 111.53 310.209 111.474 310.11C111.417 310.01 111.388 309.897 111.388 309.783C111.389 309.668 111.421 309.556 111.479 309.457C111.537 309.358 111.621 309.276 111.721 309.22L157.015 283.747L132.099 268.902C132 268.843 131.919 268.759 131.863 268.658C131.807 268.558 131.779 268.444 131.781 268.329C131.783 268.214 131.816 268.102 131.876 268.003C131.936 267.905 132.021 267.824 132.122 267.77L181.768 240.789L156.439 226.111C156.34 226.053 156.257 225.969 156.2 225.869C156.143 225.769 156.114 225.656 156.115 225.54C156.116 225.425 156.148 225.312 156.207 225.213C156.266 225.114 156.35 225.033 156.451 224.977L170.331 217.292V188.488C170.331 188.373 170.362 188.26 170.42 188.16C170.477 188.061 170.561 187.979 170.661 187.922C170.761 187.865 170.874 187.835 170.989 187.837C171.104 187.838 171.217 187.869 171.316 187.928L209.59 210.734V76.5842H210.892V211.88C210.892 211.995 210.862 212.108 210.804 212.208C210.746 212.307 210.663 212.39 210.563 212.446C210.463 212.503 210.35 212.533 210.235 212.532C210.119 212.53 210.007 212.499 209.908 212.44L171.634 189.634V217.676C171.634 217.792 171.603 217.907 171.544 218.007C171.485 218.107 171.4 218.19 171.298 218.246L158.088 225.56L183.425 240.243C183.526 240.301 183.608 240.385 183.665 240.485C183.722 240.586 183.752 240.7 183.75 240.816C183.748 240.932 183.716 241.045 183.656 241.144C183.596 241.243 183.511 241.324 183.409 241.379L133.749 268.368L158.649 283.204C158.747 283.262 158.828 283.345 158.884 283.445C158.94 283.544 158.968 283.657 158.967 283.771C158.966 283.885 158.934 283.997 158.876 284.095C158.818 284.193 158.735 284.275 158.635 284.331L113.35 309.798L151.922 332.31L151.265 333.435Z" fill="#D5D5D5"/>
</g>
<g style="mix-blend-mode:screen">
<path d="M188.655 16.6896C187.934 16.6687 187.231 16.4576 186.617 16.0776C185.407 15.3031 184.4 14.2504 183.68 13.0073C182.959 11.7643 182.547 10.3669 182.476 8.93195C182.476 6.92829 183.583 5.58105 185.231 5.58105C185.952 5.6019 186.655 5.81303 187.269 6.19305C188.479 6.96701 189.487 8.0194 190.207 9.26227C190.928 10.5052 191.34 11.9024 191.411 13.3374C191.411 15.3423 190.304 16.6896 188.655 16.6896ZM185.231 6.88374C184.322 6.88374 183.779 7.64959 183.779 8.93195C183.857 10.1363 184.213 11.3064 184.818 12.3505C185.423 13.3946 186.262 14.2845 187.269 14.9505C187.686 15.2122 188.163 15.3625 188.655 15.3869C189.565 15.3869 190.108 14.621 190.108 13.3374C190.03 12.1331 189.674 10.9631 189.069 9.91924C188.463 8.87534 187.624 7.98576 186.617 7.32014C186.2 7.0584 185.723 6.90814 185.231 6.88374V6.88374Z" fill="#D5D5D5"/>
</g>
<g style="mix-blend-mode:screen">
<path d="M107.66 13.6909C106.938 13.6701 106.235 13.459 105.622 13.0791C104.412 12.3051 103.404 11.2526 102.684 10.0097C101.963 8.76678 101.551 7.36951 101.481 5.93464C101.481 3.89919 102.562 2.58374 104.235 2.58374C104.956 2.60493 105.659 2.81603 106.273 3.19574C107.483 3.96975 108.491 5.02218 109.211 6.26506C109.931 7.50795 110.344 8.9052 110.414 10.3401C110.414 12.345 109.307 13.6909 107.66 13.6909ZM104.235 3.88642C103.326 3.88642 102.784 4.65227 102.784 5.93464C102.861 7.13897 103.217 8.30899 103.822 9.35298C104.427 10.397 105.266 11.2865 106.273 11.952C106.69 12.2136 107.168 12.3639 107.66 12.3883C108.569 12.3883 109.111 11.6224 109.111 10.3401C109.033 9.13582 108.678 7.96594 108.073 6.92203C107.467 5.87812 106.628 4.9885 105.622 4.32282C105.205 4.06114 104.727 3.91089 104.235 3.88642V3.88642Z" fill="#D5D5D5"/>
</g>
<g style="mix-blend-mode:screen">
<path d="M212.022 79.6522C211.301 79.6314 210.598 79.4203 209.984 79.0403C208.774 78.2659 207.767 77.2133 207.046 75.9702C206.326 74.727 205.913 73.3296 205.843 71.8946C205.843 69.8591 206.925 68.5437 208.598 68.5437C209.319 68.5649 210.022 68.776 210.636 69.1557C211.846 69.9302 212.853 70.9829 213.573 72.226C214.294 73.469 214.706 74.8664 214.776 76.3013C214.776 78.305 213.67 79.6522 212.022 79.6522ZM208.598 69.8464C207.688 69.8464 207.146 70.6122 207.146 71.8946C207.224 73.0991 207.579 74.2692 208.185 75.3134C208.79 76.3575 209.629 77.2473 210.636 77.9131C211.053 78.1749 211.53 78.3251 212.022 78.3495C212.931 78.3495 213.474 77.5837 213.474 76.3013C213.396 75.0969 213.04 73.9269 212.435 72.8828C211.829 71.8387 210.991 70.9488 209.984 70.2828C209.567 70.021 209.089 69.8708 208.598 69.8464Z" fill="#D5D5D5"/>
</g>
<g style="mix-blend-mode:screen">
<path d="M235.152 11.1072C234.431 11.0864 233.728 10.8753 233.114 10.4953C231.904 9.72131 230.897 8.66887 230.176 7.42596C229.456 6.18304 229.043 4.78577 228.973 3.35089C228.973 1.34593 230.08 0 231.728 0C232.449 0.0208325 233.152 0.231964 233.766 0.612002C234.976 1.38602 235.983 2.43844 236.704 3.68132C237.424 4.92421 237.836 6.32146 237.906 7.75631C237.906 9.75997 236.8 11.1072 235.152 11.1072ZM231.728 1.30268C230.818 1.30268 230.276 2.06853 230.276 3.35089C230.354 4.55515 230.709 5.72505 231.315 6.76899C231.92 7.81292 232.759 8.70256 233.766 9.36825C234.183 9.6299 234.66 9.78011 235.152 9.80452C236.06 9.80452 236.604 9.03867 236.604 7.75631C236.526 6.55207 236.17 5.38219 235.565 4.33827C234.96 3.29435 234.121 2.40474 233.114 1.73908C232.697 1.4774 232.22 1.32715 231.728 1.30268V1.30268Z" fill="#D5D5D5"/>
</g>
<g style="mix-blend-mode:screen">
<path d="M263.79 42.3565C263.068 42.3353 262.365 42.1242 261.752 41.7446C260.541 40.9706 259.534 39.9181 258.814 38.6752C258.093 37.4323 257.681 36.035 257.611 34.6002C257.611 32.5952 258.718 31.2493 260.365 31.2493C261.086 31.2701 261.79 31.4812 262.403 31.8613C263.613 32.6353 264.621 33.6877 265.341 34.9306C266.061 36.1735 266.474 37.5707 266.544 39.0056C266.544 41.041 265.462 42.3565 263.79 42.3565ZM260.365 32.552C259.455 32.552 258.914 33.3178 258.914 34.6002C258.991 35.8044 259.347 36.9743 259.952 38.0182C260.558 39.0621 261.396 39.9517 262.403 40.6174C262.82 40.8791 263.298 41.0294 263.79 41.0538C264.699 41.0538 265.241 40.2879 265.241 39.0056C265.164 37.8013 264.808 36.6313 264.203 35.5873C263.597 34.5433 262.758 33.6538 261.752 32.9883C261.334 32.7266 260.857 32.5764 260.365 32.552L260.365 32.552Z" fill="#D5D5D5"/>
</g>
<path style="mix-blend-mode:screen" d="M199.63 120.702C198.909 120.681 198.206 120.47 197.592 120.09C196.382 119.315 195.375 118.263 194.654 117.02C193.934 115.777 193.521 114.379 193.451 112.944C193.451 110.941 194.558 109.594 196.205 109.594C196.927 109.614 197.63 109.825 198.243 110.205C199.454 110.98 200.461 112.032 201.182 113.275C201.903 114.518 202.315 115.916 202.385 117.351C202.385 119.355 201.279 120.702 199.63 120.702ZM196.205 110.896C195.297 110.896 194.754 111.662 194.754 112.944C194.832 114.149 195.187 115.319 195.793 116.363C196.398 117.407 197.237 118.297 198.243 118.963C198.661 119.225 199.138 119.375 199.63 119.399C200.54 119.399 201.083 118.633 201.083 117.351C201.005 116.146 200.649 114.976 200.043 113.932C199.438 112.888 198.599 111.998 197.592 111.332C197.175 111.071 196.697 110.921 196.205 110.896L196.205 110.896Z" fill="url(#paint1_radial)"/>
<g style="mix-blend-mode:screen">
<path d="M291.376 66.8924C290.655 66.8716 289.952 66.6605 289.338 66.2804C288.128 65.506 287.121 64.4532 286.401 63.2102C285.68 61.9671 285.268 60.5698 285.198 59.1348C285.198 57.1312 286.304 55.7839 287.952 55.7839C288.673 55.8048 289.376 56.0159 289.99 56.3958C291.2 57.1702 292.207 58.2229 292.928 59.466C293.648 60.7091 294.06 62.1065 294.131 63.5415C294.131 65.5452 293.024 66.8924 291.376 66.8924ZM287.952 57.0866C287.043 57.0866 286.5 57.8525 286.5 59.1348C286.578 60.3392 286.934 61.5092 287.539 62.5533C288.144 63.5975 288.983 64.4873 289.99 65.1534C290.407 65.415 290.884 65.5653 291.376 65.5898C292.285 65.5898 292.828 64.8239 292.828 63.5415C292.75 62.3371 292.395 61.167 291.789 60.1228C291.184 59.0787 290.345 58.1888 289.338 57.523C288.921 57.2613 288.444 57.1111 287.952 57.0867V57.0866Z" fill="#D5D5D5"/>
</g>
<g style="mix-blend-mode:screen">
<path d="M324.37 47.1791C323.648 47.1582 322.945 46.9472 322.332 46.5672C321.122 45.7932 320.114 44.7408 319.394 43.4978C318.673 42.2549 318.261 40.8577 318.191 39.4228C318.191 37.4193 319.298 36.072 320.945 36.072C321.667 36.0929 322.37 36.3039 322.983 36.6839C324.193 37.4579 325.201 38.5104 325.921 39.7533C326.641 40.9962 327.054 42.3935 327.124 43.8283C327.124 45.8332 326.017 47.1791 324.37 47.1791ZM320.945 37.3747C320.037 37.3747 319.494 38.1406 319.494 39.4228C319.571 40.627 319.927 41.7969 320.532 42.8409C321.138 43.8848 321.977 44.7745 322.983 45.4401C323.4 45.7018 323.878 45.852 324.37 45.8764C325.279 45.8764 325.821 45.1107 325.821 43.8283C325.743 42.6241 325.388 41.4542 324.783 40.4102C324.177 39.3663 323.338 38.4766 322.332 37.811C321.915 37.5493 321.437 37.3991 320.945 37.3747V37.3747Z" fill="#D5D5D5"/>
</g>
<g style="mix-blend-mode:screen">
<path d="M378.341 123.18C377.619 123.159 376.916 122.948 376.303 122.568C375.093 121.794 374.085 120.741 373.365 119.498C372.645 118.255 372.232 116.857 372.162 115.422C372.162 113.419 373.269 112.072 374.916 112.072C375.637 112.092 376.34 112.303 376.954 112.683C378.164 113.458 379.171 114.511 379.892 115.754C380.612 116.997 381.025 118.394 381.095 119.829C381.095 121.833 379.988 123.18 378.341 123.18ZM374.916 113.374C374.008 113.374 373.465 114.14 373.465 115.422C373.542 116.627 373.898 117.797 374.503 118.841C375.108 119.885 375.947 120.775 376.954 121.441C377.371 121.703 377.849 121.853 378.341 121.877C379.249 121.877 379.792 121.111 379.792 119.829C379.714 118.625 379.359 117.455 378.753 116.411C378.148 115.367 377.309 114.477 376.303 113.811C375.885 113.549 375.408 113.399 374.916 113.374V113.374Z" fill="#D5D5D5"/>
</g>
<g style="mix-blend-mode:screen">
<path d="M391.834 217.628C391.113 217.608 390.409 217.397 389.795 217.016C388.585 216.242 387.578 215.19 386.857 213.947C386.137 212.704 385.724 211.307 385.654 209.872C385.654 207.868 386.761 206.521 388.409 206.521C389.13 206.542 389.833 206.753 390.446 207.133C391.657 207.907 392.664 208.96 393.384 210.202C394.105 211.445 394.517 212.843 394.587 214.278C394.587 216.313 393.506 217.628 391.834 217.628ZM388.409 207.824C387.5 207.824 386.957 208.59 386.957 209.872C387.035 211.076 387.39 212.246 387.996 213.29C388.601 214.334 389.44 215.224 390.446 215.889C390.864 216.151 391.342 216.302 391.834 216.326C392.743 216.326 393.285 215.56 393.285 214.278C393.207 213.073 392.852 211.903 392.246 210.859C391.641 209.815 390.802 208.926 389.795 208.26C389.378 207.999 388.9 207.848 388.409 207.824Z" fill="#D5D5D5"/>
</g>
<g style="mix-blend-mode:screen">
<path d="M365.338 421.908C363.891 421.935 362.461 421.59 361.186 420.904C360.626 420.693 360.143 420.317 359.802 419.826C359.46 419.334 359.276 418.751 359.274 418.152C359.271 417.554 359.451 416.969 359.788 416.475C360.125 415.981 360.605 415.6 361.163 415.385C362.448 414.752 363.862 414.425 365.294 414.427C366.726 414.429 368.139 414.762 369.422 415.399C369.96 415.647 370.421 416.035 370.757 416.523C371.094 417.011 371.293 417.58 371.334 418.171C371.295 418.756 371.098 419.32 370.766 419.804C370.434 420.287 369.977 420.672 369.445 420.919C368.183 421.595 366.769 421.936 365.338 421.908ZM365.269 415.698C364.067 415.669 362.877 415.949 361.814 416.512C361.485 416.651 361.197 416.874 360.98 417.158C360.763 417.442 360.624 417.778 360.576 418.133C360.628 418.492 360.771 418.832 360.992 419.12C361.212 419.408 361.504 419.634 361.837 419.777C362.921 420.303 364.109 420.577 365.314 420.579C366.518 420.582 367.707 420.312 368.793 419.791C369.123 419.652 369.41 419.43 369.627 419.146C369.845 418.861 369.984 418.525 370.031 418.171C369.979 417.812 369.836 417.472 369.616 417.184C369.395 416.896 369.104 416.669 368.77 416.526C367.693 415.955 366.488 415.67 365.269 415.698V415.698Z" fill="#D5D5D5"/>
</g>
<g style="mix-blend-mode:screen">
<path d="M295.658 413.005C294.211 413.033 292.781 412.687 291.507 412C290.968 411.753 290.507 411.365 290.17 410.877C289.833 410.389 289.634 409.82 289.594 409.228C289.633 408.643 289.829 408.079 290.161 407.596C290.493 407.112 290.95 406.728 291.483 406.482C292.768 405.849 294.181 405.522 295.614 405.524C297.046 405.527 298.458 405.859 299.741 406.496C300.28 406.744 300.741 407.132 301.078 407.619C301.415 408.107 301.614 408.676 301.655 409.268C301.616 409.853 301.419 410.417 301.087 410.9C300.755 411.383 300.298 411.768 299.766 412.014C298.504 412.692 297.089 413.033 295.658 413.005V413.005ZM295.59 406.793C294.388 406.765 293.198 407.046 292.134 407.609C291.805 407.748 291.517 407.97 291.3 408.254C291.083 408.538 290.944 408.874 290.896 409.228C290.948 409.588 291.091 409.928 291.312 410.216C291.533 410.504 291.824 410.73 292.158 410.873C293.242 411.398 294.43 411.672 295.635 411.675C296.839 411.677 298.028 411.408 299.114 410.887C299.444 410.748 299.731 410.526 299.948 410.242C300.166 409.958 300.305 409.622 300.352 409.268C300.3 408.908 300.157 408.568 299.936 408.28C299.715 407.992 299.424 407.766 299.09 407.623C298.014 407.052 296.809 406.766 295.59 406.793V406.793Z" fill="#D5D5D5"/>
</g>
<path style="mix-blend-mode:screen" d="M250.376 356.448C248.929 356.476 247.499 356.13 246.224 355.445C245.664 355.234 245.181 354.857 244.84 354.366C244.498 353.875 244.314 353.291 244.312 352.693C244.309 352.094 244.489 351.509 244.826 351.015C245.163 350.521 245.643 350.141 246.201 349.925C247.486 349.292 248.9 348.965 250.332 348.967C251.764 348.97 253.177 349.302 254.46 349.939C254.998 350.187 255.459 350.575 255.795 351.063C256.132 351.551 256.331 352.12 256.372 352.711C256.333 353.296 256.137 353.86 255.804 354.344C255.472 354.827 255.015 355.213 254.483 355.459C253.221 356.135 251.807 356.476 250.376 356.448ZM250.308 350.238C249.105 350.209 247.915 350.49 246.852 351.052C246.523 351.191 246.235 351.414 246.018 351.698C245.801 351.982 245.662 352.318 245.614 352.673C245.666 353.032 245.809 353.372 246.03 353.66C246.251 353.948 246.542 354.174 246.875 354.318C247.959 354.843 249.147 355.117 250.352 355.119C251.556 355.122 252.745 354.853 253.831 354.332C254.161 354.193 254.448 353.97 254.666 353.686C254.883 353.401 255.022 353.065 255.069 352.711C255.017 352.352 254.874 352.012 254.654 351.724C254.433 351.436 254.142 351.209 253.808 351.066C252.731 350.495 251.526 350.21 250.308 350.238Z" fill="url(#paint2_radial)"/>
<g style="mix-blend-mode:screen">
<path d="M252.982 430.376C251.534 430.403 250.104 430.057 248.829 429.372C248.269 429.161 247.787 428.785 247.445 428.293C247.104 427.802 246.92 427.218 246.917 426.62C246.915 426.022 247.094 425.437 247.431 424.942C247.769 424.448 248.248 424.068 248.806 423.852C250.092 423.22 251.505 422.892 252.937 422.895C254.37 422.897 255.782 423.229 257.065 423.866C257.603 424.114 258.064 424.503 258.401 424.99C258.737 425.478 258.936 426.047 258.977 426.638C258.938 427.224 258.742 427.788 258.41 428.271C258.077 428.755 257.621 429.14 257.088 429.386C255.827 430.063 254.413 430.404 252.982 430.376V430.376ZM252.913 424.165C251.711 424.137 250.521 424.417 249.458 424.979C249.128 425.118 248.841 425.341 248.624 425.625C248.407 425.91 248.267 426.246 248.22 426.6C248.271 426.959 248.414 427.299 248.635 427.587C248.856 427.875 249.147 428.102 249.481 428.245C250.564 428.77 251.753 429.044 252.957 429.047C254.161 429.049 255.351 428.78 256.437 428.259C256.766 428.12 257.054 427.897 257.271 427.613C257.488 427.329 257.627 426.993 257.675 426.638C257.623 426.279 257.48 425.939 257.259 425.651C257.038 425.363 256.747 425.137 256.414 424.993C255.337 424.423 254.132 424.137 252.913 424.165V424.165Z" fill="#D5D5D5"/>
</g>
<g style="mix-blend-mode:screen">
<path d="M164.725 417.349C163.278 417.376 161.848 417.03 160.572 416.345C160.013 416.134 159.53 415.758 159.188 415.266C158.847 414.775 158.663 414.191 158.66 413.593C158.658 412.995 158.837 412.41 159.175 411.915C159.512 411.421 159.991 411.041 160.55 410.825C161.835 410.193 163.248 409.865 164.681 409.868C166.113 409.87 167.525 410.203 168.808 410.839C169.346 411.088 169.808 411.476 170.144 411.963C170.48 412.451 170.679 413.02 170.72 413.611C170.681 414.197 170.485 414.761 170.153 415.244C169.82 415.728 169.364 416.113 168.831 416.359C167.57 417.036 166.156 417.377 164.725 417.349ZM164.656 411.138C163.454 411.11 162.264 411.39 161.201 411.952C160.871 412.091 160.584 412.314 160.367 412.598C160.15 412.883 160.011 413.219 159.963 413.573C160.015 413.932 160.158 414.272 160.378 414.56C160.599 414.848 160.89 415.075 161.224 415.218C162.308 415.743 163.496 416.017 164.7 416.02C165.905 416.022 167.094 415.753 168.18 415.232C168.51 415.093 168.797 414.87 169.014 414.586C169.231 414.302 169.37 413.966 169.418 413.611C169.366 413.252 169.223 412.912 169.002 412.624C168.782 412.336 168.49 412.11 168.157 411.966C167.08 411.396 165.875 411.11 164.656 411.138V411.138Z" fill="#D5D5D5"/>
</g>
<g style="mix-blend-mode:screen">
<path d="M132.266 376.64C130.819 376.667 129.389 376.322 128.115 375.636C127.555 375.425 127.072 375.049 126.73 374.558C126.388 374.067 126.204 373.483 126.201 372.885C126.199 372.286 126.378 371.701 126.715 371.207C127.053 370.712 127.532 370.332 128.091 370.116C129.376 369.484 130.789 369.157 132.222 369.159C133.654 369.162 135.066 369.494 136.349 370.13C136.888 370.378 137.35 370.767 137.686 371.255C138.023 371.743 138.222 372.312 138.263 372.904C138.223 373.489 138.027 374.053 137.694 374.536C137.362 375.019 136.906 375.404 136.374 375.65C135.112 376.327 133.697 376.668 132.266 376.64ZM132.197 370.429C130.995 370.401 129.805 370.681 128.742 371.243C128.412 371.382 128.125 371.605 127.908 371.889C127.69 372.174 127.551 372.51 127.504 372.864C127.556 373.224 127.699 373.563 127.92 373.852C128.141 374.14 128.432 374.366 128.766 374.509C129.85 375.035 131.038 375.309 132.243 375.311C133.447 375.313 134.637 375.043 135.722 374.522C136.052 374.383 136.339 374.161 136.556 373.877C136.773 373.593 136.912 373.258 136.96 372.904C136.908 372.544 136.765 372.204 136.544 371.916C136.323 371.628 136.032 371.401 135.698 371.257C134.621 370.687 133.416 370.401 132.197 370.429Z" fill="#D5D5D5"/>
</g>
<g style="mix-blend-mode:screen">
<path d="M48.2947 406.548C46.8477 406.576 45.4179 406.23 44.1437 405.543C43.6053 405.296 43.1435 404.908 42.8069 404.42C42.4702 403.932 42.2711 403.363 42.2305 402.771C42.2695 402.186 42.4655 401.622 42.798 401.139C43.1304 400.655 43.587 400.271 44.1196 400.025C45.4048 399.392 46.8183 399.065 48.2506 399.067C49.6829 399.07 51.0954 399.402 52.3784 400.039C52.9167 400.287 53.3785 400.675 53.7151 401.162C54.0518 401.65 54.251 402.22 54.2918 402.811C54.2525 403.396 54.0563 403.96 53.7239 404.443C53.3915 404.927 52.9351 405.311 52.4026 405.557C51.141 406.235 49.7264 406.576 48.2947 406.548ZM48.2274 400.336C47.0245 400.308 45.8345 400.589 44.771 401.152C44.4415 401.291 44.154 401.513 43.9369 401.797C43.7198 402.081 43.5807 402.417 43.5332 402.771C43.5847 403.131 43.7279 403.471 43.9489 403.759C44.1699 404.047 44.4613 404.273 44.7951 404.416C45.8789 404.942 47.0672 405.216 48.2716 405.218C49.476 405.22 50.6654 404.951 51.7513 404.43C52.0807 404.291 52.3683 404.069 52.5854 403.785C52.8025 403.501 52.9416 403.165 52.9891 402.811C52.9373 402.451 52.794 402.112 52.573 401.823C52.352 401.535 52.0607 401.309 51.727 401.166C50.6507 400.595 49.4457 400.309 48.2274 400.336Z" fill="#D5D5D5"/>
</g>
<g style="mix-blend-mode:screen">
<path d="M154.56 338.325C153.114 338.352 151.685 338.007 150.41 337.322C149.872 337.073 149.41 336.685 149.074 336.197C148.737 335.709 148.538 335.14 148.497 334.548C148.536 333.963 148.732 333.399 149.065 332.916C149.397 332.432 149.854 332.047 150.386 331.802C151.671 331.169 153.085 330.842 154.517 330.844C155.95 330.846 157.362 331.179 158.645 331.816C159.205 332.026 159.688 332.402 160.03 332.894C160.372 333.385 160.556 333.969 160.558 334.568C160.561 335.166 160.381 335.751 160.044 336.246C159.706 336.74 159.226 337.12 158.668 337.335C157.406 338.012 155.992 338.353 154.56 338.325ZM154.493 332.115C153.29 332.086 152.101 332.367 151.038 332.929C150.708 333.068 150.421 333.29 150.204 333.574C149.987 333.858 149.848 334.194 149.8 334.548C149.851 334.908 149.995 335.248 150.216 335.536C150.437 335.824 150.728 336.051 151.062 336.194C152.145 336.72 153.333 336.993 154.538 336.996C155.742 336.998 156.931 336.728 158.017 336.207C158.346 336.068 158.634 335.846 158.851 335.562C159.069 335.278 159.208 334.942 159.256 334.588C159.204 334.228 159.061 333.888 158.84 333.6C158.619 333.312 158.327 333.086 157.994 332.943C156.917 332.372 155.711 332.087 154.493 332.115V332.115Z" fill="#D5D5D5"/>
</g>
<g style="mix-blend-mode:screen">
<path d="M6.06439 334.146C4.61727 334.174 3.1875 333.828 1.91325 333.141C1.37484 332.894 0.913051 332.505 0.576396 332.018C0.239741 331.53 0.0406383 330.961 0 330.369C0.0390055 329.784 0.235043 329.22 0.567489 328.737C0.899935 328.253 1.3565 327.868 1.88915 327.623C3.1742 326.99 4.58782 326.662 6.02016 326.665C7.45251 326.667 8.86501 327 10.1479 327.637C10.6863 327.884 11.148 328.273 11.4847 328.76C11.8213 329.248 12.0205 329.817 12.0613 330.409C12.022 330.994 11.8259 331.558 11.4935 332.041C11.161 332.524 10.7046 332.909 10.1721 333.155C8.91053 333.832 7.49596 334.174 6.06439 334.146V334.146ZM5.99692 327.934C4.79404 327.906 3.60405 328.187 2.5405 328.75C2.21106 328.889 1.92357 329.111 1.70647 329.395C1.48938 329.679 1.35019 330.015 1.30268 330.369C1.35424 330.729 1.4974 331.069 1.7184 331.357C1.9394 331.645 2.23081 331.871 2.5646 332.014C3.64839 332.539 4.83672 332.814 6.0411 332.816C7.24549 332.818 8.43491 332.549 9.5208 332.028C9.85027 331.889 10.1378 331.667 10.3549 331.383C10.572 331.099 10.7112 330.763 10.7586 330.409C10.7068 330.049 10.5635 329.709 10.3425 329.421C10.1215 329.133 9.83024 328.907 9.49657 328.764C8.42015 328.193 7.21521 327.907 5.99692 327.934V327.934Z" fill="#D5D5D5"/>
</g>
<g style="mix-blend-mode:screen">
<path d="M6.24749 257.779C4.80062 257.806 3.37111 257.46 2.09649 256.775C1.55801 256.527 1.09626 256.138 0.759617 255.65C0.422976 255.162 0.223849 254.592 0.183105 254.001C0.222566 253.415 0.418798 252.852 0.751202 252.369C1.08361 251.886 1.53993 251.501 2.07226 251.255C3.35744 250.623 4.77104 250.295 6.20335 250.298C7.63565 250.3 9.04813 250.633 10.3311 251.269C10.8696 251.517 11.3314 251.905 11.668 252.393C12.0047 252.88 12.2038 253.45 12.2444 254.041C12.2054 254.627 12.0094 255.191 11.6769 255.674C11.3445 256.157 10.8879 256.542 10.3552 256.788C9.09394 257.466 7.67917 257.807 6.24749 257.779V257.779ZM6.18001 251.568C4.97724 251.54 3.78726 251.82 2.7236 252.382C2.39413 252.521 2.10661 252.744 1.88951 253.028C1.6724 253.312 1.53324 253.647 1.48579 254.002C1.53771 254.361 1.68101 254.701 1.90198 254.989C2.12294 255.278 2.41419 255.504 2.74783 255.648C3.8317 256.173 5.02005 256.447 6.22441 256.449C7.42877 256.451 8.61811 256.182 9.7039 255.661C10.0333 255.522 10.3208 255.299 10.5379 255.015C10.755 254.731 10.8942 254.396 10.9417 254.041C10.8901 253.682 10.747 253.342 10.526 253.054C10.305 252.766 10.0136 252.539 9.6798 252.396C8.60319 251.826 7.39824 251.54 6.18004 251.568L6.18001 251.568Z" fill="#D5D5D5"/>
</g>
</g>
<g style="mix-blend-mode:screen">
<path d="M375.991 173.62C375.694 173.614 375.404 173.53 375.15 173.376L356.907 162.842C356.464 162.563 356.096 162.182 355.834 161.729C355.572 161.277 355.424 160.767 355.403 160.245V156.312C355.403 154.145 356.546 152.744 358.315 152.744C358.68 152.747 359.042 152.803 359.39 152.912C360.426 153.289 361.567 153.249 362.574 152.8C362.619 152.777 362.648 152.692 362.657 152.657C362.73 152.144 362.611 151.623 362.323 151.192C361.555 149.868 360.931 148.466 360.462 147.01C359.631 146.248 359.099 145.216 358.96 144.097C358.91 143.731 358.974 143.359 359.145 143.031C359.315 142.703 359.583 142.437 359.912 142.268C360.259 137.735 362.556 136.416 366.631 138.77C368.503 139.816 370.06 141.345 371.14 143.198C372.219 145.051 372.781 147.159 372.767 149.304C373.368 150.04 373.697 150.96 373.699 151.91C373.708 152.13 373.67 152.35 373.587 152.553C373.503 152.757 373.377 152.941 373.217 153.092C373.056 153.242 372.865 153.357 372.657 153.427C372.448 153.497 372.227 153.522 372.008 153.498C371.561 154.3 370.907 154.969 370.116 155.434C370.054 155.486 370.012 155.558 369.998 155.638C369.928 156.13 370.045 156.631 370.325 157.042C371.261 158.623 372.446 160.042 373.834 161.244C374.845 162.12 375.668 163.19 376.256 164.391C376.844 165.592 377.185 166.899 377.256 168.234V172.166C377.269 172.528 377.157 172.883 376.94 173.172C376.826 173.314 376.682 173.429 376.517 173.506C376.353 173.584 376.173 173.623 375.991 173.62V173.62ZM358.315 153.949C357.246 153.949 356.608 154.834 356.608 156.312V160.245C356.631 160.555 356.724 160.856 356.88 161.126C357.036 161.395 357.252 161.625 357.51 161.799L375.753 172.331C375.964 172.452 376.008 172.415 376.007 172.414C376.041 172.336 376.056 172.251 376.051 172.166V168.234C375.977 167.074 375.674 165.94 375.159 164.898C374.644 163.856 373.928 162.926 373.052 162.162C371.564 160.874 370.293 159.353 369.289 157.659C368.843 156.973 368.678 156.141 368.83 155.336C368.874 155.141 368.957 154.957 369.074 154.794C369.191 154.632 369.339 154.494 369.511 154.391C370.22 153.969 370.783 153.339 371.122 152.587C371.184 152.459 371.288 152.356 371.417 152.297C371.546 152.237 371.692 152.224 371.829 152.261C371.906 152.283 371.986 152.294 372.067 152.294C372.493 152.294 372.493 152.035 372.493 151.91C372.493 151.205 372.234 150.525 371.765 149.998C371.649 149.89 371.58 149.741 371.573 149.583C371.388 145.056 369.574 141.86 366.028 139.813C365.203 139.266 364.254 138.935 363.268 138.848C362.77 138.848 361.256 138.848 361.087 142.833C361.083 142.921 361.06 143.007 361.019 143.085C360.978 143.163 360.921 143.231 360.851 143.285C360.781 143.339 360.7 143.376 360.614 143.396C360.528 143.415 360.439 143.415 360.353 143.396C360.313 143.411 360.166 143.6 360.166 144.097C360.319 144.925 360.75 145.676 361.388 146.226C361.472 146.3 361.534 146.396 361.567 146.503C362.014 147.928 362.618 149.299 363.368 150.59C363.826 151.303 363.986 152.165 363.816 152.995C363.768 153.18 363.682 153.353 363.564 153.503C363.446 153.654 363.299 153.778 363.131 153.869C361.846 154.469 360.378 154.54 359.042 154.066C358.806 153.992 358.562 153.953 358.315 153.949V153.949Z" fill="#D5D5D5"/>
</g>
<path opacity="0.9" d="M286.869 409.05C286.977 401.188 280.69 394.727 272.827 394.62C264.964 394.512 258.503 400.799 258.396 408.662C258.289 416.525 264.576 422.986 272.439 423.093C280.301 423.2 286.762 416.913 286.869 409.05Z" fill="url(#paint3_radial)"/>
<path d="M281.497 391.021C286.09 384.638 284.639 375.741 278.256 371.148C271.873 366.555 262.976 368.006 258.383 374.389C253.79 380.772 255.241 389.669 261.624 394.262C268.007 398.855 276.904 397.404 281.497 391.021Z" fill="url(#paint4_radial)"/>
<path d="M222.206 257.68L191.381 274.29L252.576 387.857L252.581 387.854C252.602 387.896 252.62 387.939 252.642 387.981C255.313 392.938 264.379 393.238 272.891 388.651C281.403 384.065 286.138 376.328 283.467 371.371C283.445 371.33 283.418 371.291 283.395 371.251L283.4 371.248L222.206 257.68Z" fill="url(#paint5_linear)"/>
<path style="mix-blend-mode:color-dodge" d="M222.206 257.68L191.381 274.29L252.576 387.857L252.581 387.854C252.602 387.896 252.62 387.939 252.642 387.981C255.313 392.938 264.379 393.238 272.891 388.651C281.403 384.065 286.138 376.328 283.467 371.371C283.445 371.33 283.418 371.291 283.395 371.251L283.4 371.248L222.206 257.68Z" fill="url(#paint6_radial)"/>
<path d="M211.663 275.022C220.175 270.435 224.91 262.699 222.239 257.742C219.568 252.785 210.503 252.485 201.991 257.072C193.479 261.659 188.744 269.395 191.414 274.352C194.085 279.308 203.151 279.609 211.663 275.022Z" fill="url(#paint7_linear)"/>
<path d="M202.022 235.176L183.687 245.055L196.724 269.25L196.727 269.248C196.74 269.273 196.75 269.299 196.764 269.324C198.352 272.272 203.744 272.451 208.807 269.722C213.871 266.994 216.687 262.393 215.098 259.444C215.085 259.419 215.069 259.397 215.055 259.372L215.059 259.371L202.022 235.176Z" fill="url(#paint8_linear)"/>
<g style="mix-blend-mode:screen">
<path d="M335.68 162.527C331.003 159.679 326.968 155.891 323.83 151.403L323.648 151.19L323.322 151.002L323.188 151.032C319.697 151.818 315.599 150.934 311.339 148.474L310.417 147.93L310.707 151.791C311.586 163.535 316.294 172.945 323.089 183.46L323.234 183.685L323.784 184.002L323.93 183.946C330.725 181.278 335.431 177.302 336.312 166.574L336.602 163.048L335.68 162.527ZM335.279 165.87C334.44 176.083 329.975 179.961 323.509 182.551C317.043 172.493 312.578 163.46 311.74 152.28L311.553 149.787C315.84 152.214 319.962 153.117 323.509 152.409C326.712 156.894 330.777 160.697 335.466 163.593L335.279 165.87ZM323.198 157.393C320.846 157.769 318.44 157.249 316.453 155.937L315.679 155.482L315.868 158.008C316.386 164.907 319.143 170.424 323.125 176.584L323.27 176.808L323.748 177.084L323.893 177.027C327.875 175.466 330.633 173.135 331.15 166.831L331.34 164.524L330.766 164.2L330.676 164.734L330.567 164.086C327.904 162.465 325.606 160.308 323.82 157.753L323.658 157.552L323.332 157.364L323.198 157.393ZM330.204 165.061L330.117 166.128C329.644 171.895 327.141 174.133 323.509 175.617C319.877 169.939 317.374 164.811 316.901 158.498L316.814 157.332C318.817 158.559 321.179 159.066 323.509 158.77C325.325 161.27 327.597 163.404 330.204 165.061V165.061Z" fill="#D5D5D5"/>
</g>
<g style="mix-blend-mode:screen">
<g style="mix-blend-mode:screen">
<path d="M364.912 271.273L348.391 261.734C347.417 261.101 346.607 260.248 346.024 259.244C345.442 258.239 345.104 257.112 345.038 255.953V241.259C345.038 239.276 346.351 238.399 348.033 239.163V233.864C348.033 229.717 350.973 228.042 354.587 230.128L358.717 232.513C360.62 233.75 362.204 235.418 363.343 237.382C364.481 239.346 365.142 241.55 365.27 243.816V249.115C366.144 249.767 366.865 250.601 367.382 251.561C367.899 252.52 368.2 253.581 368.264 254.669V269.362C368.264 271.483 366.761 272.34 364.912 271.273ZM348.391 240.643C347.164 239.935 346.166 240.503 346.166 241.91V256.604C346.21 257.373 346.434 258.121 346.821 258.787C347.207 259.454 347.745 260.02 348.391 260.439L364.912 269.978C366.138 270.686 367.136 270.118 367.136 268.711V254.017C367.093 253.248 366.868 252.5 366.482 251.834C366.096 251.168 365.558 250.602 364.912 250.182L364.142 249.737V243.164C364.035 241.288 363.489 239.464 362.546 237.838C361.604 236.213 360.292 234.832 358.717 233.808L354.587 231.423C351.594 229.695 349.161 231.083 349.161 234.515V241.088L348.391 240.643ZM361.797 248.384L351.506 242.442V237.055C351.506 234.542 353.288 233.526 355.478 234.791L357.826 236.146C358.979 236.896 359.94 237.907 360.63 239.097C361.319 240.287 361.72 241.623 361.797 242.997V248.384ZM352.634 241.799L360.669 246.438V242.345C360.613 241.362 360.327 240.406 359.833 239.554C359.339 238.702 358.651 237.978 357.826 237.441L355.478 236.085C353.91 235.18 352.634 235.908 352.634 237.707V241.799Z" fill="#D5D5D5"/>
</g>
<g style="mix-blend-mode:screen">
<path d="M358.248 262.094L355.055 260.251V256.517C354.215 255.458 353.728 254.163 353.661 252.814C353.661 250.921 355.002 250.157 356.651 251.109C357.52 251.674 358.243 252.435 358.763 253.331C359.282 254.227 359.584 255.233 359.642 256.267C359.642 257.447 359.105 258.232 358.248 258.361V262.094ZM356.183 259.607L357.119 260.148V256.917L357.443 256.929C358.093 256.953 358.514 256.437 358.514 255.616C358.477 254.972 358.29 254.345 357.966 253.787C357.642 253.229 357.192 252.755 356.651 252.404C355.624 251.811 354.789 252.287 354.789 253.465C354.841 254.413 355.219 255.313 355.859 256.015L356.183 256.376V259.607Z" fill="#D5D5D5"/>
</g>
</g>
<g style="mix-blend-mode:screen">
<path d="M198.749 51.0704L205.127 54.7527V41.409L198.749 37.7267V51.0704ZM199.878 39.6726L203.999 42.052V52.8067L199.878 50.4271L199.878 39.6726ZM207.062 55.8696L213.441 59.5524V36.1683L207.062 32.4854V55.8696ZM208.19 34.4313L212.313 36.8116V57.6066L208.19 55.2264V34.4313ZM215.375 27.2437V60.6694L221.753 64.3517V30.926L215.375 27.2437ZM220.625 62.4057L216.503 60.0262V29.1896L220.625 31.5691V62.4057Z" fill="#D5D5D5"/>
</g>
<g style="mix-blend-mode:screen">
<path d="M278.008 91.9766C278.006 91.4409 277.975 90.9057 277.916 90.3733L281.226 89.9547L281.119 89.4278C280.757 87.6717 280.242 85.9507 279.579 84.2845L279.368 83.7477L275.595 82.6064C275.035 81.4655 274.397 80.3645 273.685 79.3114L274.588 75.5043L274.227 75.0529C273.107 73.6454 271.866 72.3379 270.52 71.1451L270.114 70.7885L268.084 73.4151C267.247 72.791 266.34 72.2674 265.381 71.8549L263.352 66.8842L262.946 66.7728C261.743 66.4239 260.487 66.2973 259.238 66.3991L258.877 66.4332L259.78 71.2835C259.075 71.5107 258.425 71.8818 257.871 72.3733L254.097 69.158L253.886 69.4506C253.171 70.4685 252.649 71.6093 252.347 72.8161L252.24 73.2195L255.55 77.4603C255.489 77.9571 255.459 78.457 255.458 78.9575C255.461 79.4934 255.491 80.0287 255.55 80.5615L252.24 80.9794L252.347 81.5063C252.709 83.2625 253.224 84.9837 253.886 86.6502L254.097 87.1869L257.871 88.3288C258.431 89.4692 259.069 90.5695 259.78 91.622L258.877 95.4304L259.238 95.8818C260.359 97.2891 261.6 98.5964 262.946 99.789L263.352 100.146L265.381 97.5195C266.217 98.1451 267.124 98.6689 268.084 99.0799L270.113 104.049L270.519 104.161C271.722 104.509 272.978 104.636 274.227 104.536L274.589 104.502L273.685 99.65C274.39 99.4224 275.04 99.0521 275.595 98.5621L279.368 101.777L279.579 101.484C280.295 100.467 280.818 99.3253 281.119 98.118L281.226 97.7144L277.916 93.4745C277.977 92.9775 278.007 92.4773 278.008 91.9766V91.9766ZM279.916 97.5562C279.664 98.4096 279.292 99.2226 278.81 99.9707L275.135 96.8385L274.913 97.0571C274.305 97.6619 273.547 98.0938 272.716 98.3083L272.415 98.3882L273.295 103.115C272.399 103.151 271.503 103.06 270.633 102.846L268.656 98.0041L268.285 97.8562C267.168 97.4138 266.122 96.8096 265.18 96.0632L264.809 95.7837L262.832 98.3423C261.883 97.4682 260.993 96.5311 260.17 95.5375L261.05 91.8271L260.749 91.3986C259.906 90.204 259.171 88.9371 258.553 87.6126L258.331 87.1372L254.655 86.0247C254.204 84.8203 253.834 83.5867 253.55 82.3323L256.775 81.9262L256.717 81.467C256.635 80.8509 256.592 80.2303 256.586 79.6088C256.588 79.0378 256.632 78.4678 256.717 77.9032L256.775 77.5115L253.55 73.3791C253.802 72.5257 254.174 71.7125 254.655 70.9641L258.331 74.0968L258.553 73.877C259.161 73.2724 259.919 72.8403 260.749 72.6251L261.05 72.5453L260.17 67.8197C261.065 67.7832 261.961 67.873 262.831 68.0864L264.808 72.9298L265.18 73.0785C266.297 73.521 267.343 74.1252 268.285 74.8716L268.656 75.151L270.634 72.5918C271.583 73.4661 272.472 74.4034 273.295 75.3972L272.415 79.1064L272.716 79.5348C273.56 80.7302 274.295 81.9982 274.913 83.3239L275.135 83.7982L278.81 84.9101C279.262 86.1142 279.632 87.3476 279.916 88.6018L276.69 89.0099L276.748 89.4677C276.831 90.0835 276.875 90.7039 276.88 91.3253C276.878 91.8965 276.834 92.4668 276.748 93.0315L276.69 93.4244L279.916 97.5562ZM266.733 79.8843C264.049 78.3348 261.867 79.5791 261.867 82.6575C261.962 84.3403 262.452 85.9771 263.298 87.4353C264.143 88.8935 265.32 90.1322 266.733 91.0511C269.416 92.6 271.598 91.3556 271.598 88.276C271.503 86.5935 271.013 84.9572 270.168 83.4993C269.322 82.0415 268.146 80.8031 266.733 79.8843V79.8843ZM266.733 89.7565C265.648 89.0506 264.744 88.0991 264.094 86.9789C263.445 85.8588 263.068 84.6015 262.995 83.3088C262.995 80.9447 264.672 79.9887 266.733 81.1788C267.818 81.8846 268.722 82.8359 269.371 83.9557C270.02 85.0755 270.397 86.3323 270.47 87.6246C270.47 89.9899 268.793 90.946 266.733 89.7565V89.7565Z" fill="#D5D5D5"/>
</g>
<g style="mix-blend-mode:screen">
<path d="M271.426 248.011C270.506 246.345 269.174 244.943 267.558 243.938C267.006 243.537 266.356 243.288 265.677 243.219C264.997 243.15 264.312 243.262 263.689 243.544C263.132 243.933 262.689 244.464 262.407 245.082C262.125 245.7 262.015 246.382 262.086 247.058C262.193 248.95 262.744 250.791 263.694 252.43C264.645 254.069 265.969 255.462 267.558 256.494C268.11 256.895 268.759 257.143 269.439 257.213C270.118 257.282 270.804 257.17 271.426 256.888C271.983 256.5 272.425 255.969 272.707 255.351C272.989 254.733 273.1 254.05 273.028 253.375C272.964 251.479 272.413 249.631 271.426 248.011ZM270.732 255.691C270.221 255.922 269.659 256.014 269.101 255.957C268.544 255.9 268.011 255.696 267.558 255.367C266.232 254.543 265.139 253.392 264.384 252.026C263.574 250.696 263.121 249.181 263.068 247.625C263.009 247.07 263.1 246.51 263.332 246.003C263.563 245.496 263.926 245.06 264.384 244.742C264.894 244.51 265.457 244.418 266.014 244.475C266.572 244.532 267.105 244.735 267.558 245.065C268.862 245.912 269.948 247.055 270.728 248.4C271.508 249.745 271.959 251.256 272.046 252.808C272.105 253.362 272.014 253.922 271.783 254.429C271.551 254.936 271.189 255.372 270.732 255.691V255.691ZM282.508 271.544L277.4 262.734C277.175 262.292 276.862 261.901 276.482 261.583C276.101 261.266 275.66 261.029 275.185 260.886L274.225 259.229C276.36 256.835 275.973 251.666 273.25 246.971C271.896 244.52 269.936 242.457 267.557 240.978C265.407 239.737 263.385 239.53 261.865 240.397C258.727 242.186 258.726 248.048 261.865 253.462C263.217 255.908 265.173 257.967 267.547 259.442C268.881 260.309 270.48 260.672 272.058 260.465L273.018 262.122C272.901 262.602 272.884 263.101 272.97 263.587C273.055 264.074 273.24 264.538 273.514 264.949L278.622 273.76C278.98 274.408 279.498 274.953 280.127 275.344C280.342 275.5 280.594 275.597 280.859 275.624C281.123 275.651 281.39 275.608 281.632 275.498L282.508 274.998C283.338 274.525 283.338 272.975 282.508 271.544ZM281.814 273.801L280.938 274.301C280.505 274.548 279.75 274.112 279.316 273.364L274.208 264.553C274.034 264.312 273.925 264.03 273.894 263.733C273.863 263.437 273.911 263.138 274.032 262.866L274.22 262.601L272.156 259.04L271.814 259.139C271.084 259.297 270.33 259.305 269.596 259.164C268.863 259.022 268.166 258.734 267.547 258.316C265.463 257.02 263.746 255.213 262.559 253.066C259.804 248.312 259.804 243.165 262.559 241.594C263.363 241.231 264.249 241.086 265.127 241.176C266.005 241.266 266.843 241.586 267.557 242.105C269.645 243.403 271.366 245.215 272.556 247.366C275.036 251.643 275.309 256.366 273.192 258.354L272.934 258.596L274.998 262.157L275.324 262.129C275.62 262.166 275.902 262.276 276.144 262.451C276.386 262.626 276.579 262.86 276.706 263.129L281.814 271.94C282.261 272.711 282.261 273.546 281.814 273.801V273.801Z" fill="#D5D5D5"/>
</g>
<path opacity="0.65" d="M323.69 262.685L209.572 196.658C202.81 192.754 205.762 186.884 205.762 177.868V143.011C205.762 133.995 211.244 129.851 218.006 133.755L323.69 195.178C330.452 199.082 335.934 209.556 335.934 218.572V253.429C335.934 262.445 330.452 266.589 323.69 262.685Z" fill="url(#paint9_linear)"/>
<path opacity="0.8" d="M327.161 193.334L221.476 131.911C220.44 131.205 219.257 130.743 218.015 130.56C216.774 130.378 215.508 130.481 214.312 130.86C214.056 130.959 210.642 132.773 210.401 132.906L210.384 132.917C212.476 131.9 215.122 132.089 218.006 133.755L323.691 195.178C330.453 199.082 335.934 209.556 335.934 218.572V253.429C335.934 259.055 333.799 262.783 330.55 263.843C330.935 263.826 331.307 263.699 331.623 263.478C331.777 263.389 335.483 261.298 335.63 261.195C337.956 259.566 339.404 256.219 339.404 251.585V216.728C339.404 207.712 333.923 197.238 327.161 193.334Z" fill="url(#paint10_linear)"/>
<path d="M320.883 240.462L206.873 174.595V146.827L320.883 212.692V240.462Z" fill="url(#paint11_linear)"/>
<path d="M209.476 173.62V148.329L206.873 146.827V174.595L320.883 240.462V237.983L209.476 173.62Z" fill="#364F87"/>
<path style="mix-blend-mode:screen" opacity="0.6" d="M324.278 194.884L218.594 133.461C215.821 131.86 213.272 131.632 211.219 132.519C213.288 132.286 215.374 132.775 217.125 133.902L322.809 195.325C329.571 199.229 335.053 209.703 335.053 218.719V253.576C335.053 258.894 333.137 262.498 330.183 263.774C333.961 263.175 336.522 259.294 336.522 253.135V218.278C336.522 209.262 331.04 198.788 324.278 194.884Z" fill="url(#paint12_radial)"/>
<path opacity="0.65" d="M317.758 282.563L115.349 165.697C106.043 160.324 98.4978 145.908 98.4978 133.499V85.5234C98.4978 73.1143 106.043 67.4106 115.349 72.784L317.758 189.65C327.065 195.023 334.61 209.439 334.61 221.848V269.824C334.61 282.233 327.065 287.936 317.758 282.563Z" fill="url(#paint13_linear)"/>
<path opacity="0.8" d="M322.534 187.113L120.126 70.2468C116.443 68.121 113.037 67.7287 110.265 68.7995C109.912 68.9359 105.214 71.4323 104.882 71.6154L104.858 71.6303C107.738 70.2312 111.38 70.4917 115.35 72.7838L317.758 189.65C327.065 195.023 334.61 209.439 334.61 221.848V269.824C334.61 277.568 331.671 282.699 327.199 284.157C327.729 284.133 328.241 283.959 328.676 283.655C328.889 283.532 333.988 280.655 334.192 280.513C337.393 278.271 339.386 273.664 339.386 267.286V219.311C339.386 206.902 331.841 192.486 322.534 187.113Z" fill="url(#paint14_linear)"/>
<path d="M313.894 251.976L119.908 140.065V101.846L313.894 213.757V251.976Z" fill="url(#paint15_linear)"/>
<path d="M123.491 138.722V103.914L119.908 101.846V140.065L313.894 251.976V248.564L123.491 138.722Z" fill="#364F87"/>
<path style="mix-blend-mode:screen" opacity="0.6" d="M318.567 189.246L116.158 72.3796C112.342 70.1758 108.834 69.8619 106.008 71.0825C108.856 70.7622 111.727 71.4346 114.137 72.9861L316.545 189.852C325.852 195.226 333.397 209.641 333.397 222.05V270.025C333.397 277.346 330.76 282.306 326.695 284.062C331.894 283.238 335.419 277.897 335.419 269.419V221.444C335.419 209.034 327.874 194.619 318.567 189.246Z" fill="url(#paint16_radial)"/>
<path d="M142.4 126.633C142.176 126.272 141.933 125.923 141.671 125.588C141.317 125.122 140.888 124.617 140.383 124.074C139.862 123.516 139.313 122.985 138.738 122.483C138.18 121.991 137.576 121.555 136.934 121.179C136.239 120.651 135.373 120.397 134.502 120.465C133.968 120.615 133.7 121.107 133.701 121.939C133.699 122.413 133.802 122.882 134.001 123.311C134.233 123.794 134.527 124.245 134.875 124.653C135.322 125.182 135.804 125.68 136.32 126.144C136.901 126.677 137.573 127.273 138.336 127.932C139.328 128.812 140.23 129.661 141.041 130.478C141.808 131.244 142.498 132.082 143.101 132.981C143.648 133.801 144.086 134.689 144.404 135.623C144.716 136.582 144.871 137.586 144.862 138.595C144.923 139.583 144.71 140.567 144.246 141.441C144.068 141.745 143.829 142.008 143.543 142.214C143.257 142.419 142.931 142.563 142.586 142.634C141.782 142.773 140.956 142.708 140.183 142.445C139.188 142.134 138.232 141.709 137.335 141.179C135.705 140.22 134.188 139.08 132.814 137.78C131.331 136.402 129.989 134.879 128.808 133.235L130.553 130.334C130.836 130.79 131.147 131.227 131.484 131.644C131.931 132.219 132.46 132.841 133.071 133.511C133.709 134.209 134.388 134.87 135.103 135.489C135.811 136.112 136.577 136.664 137.392 137.139C139.567 138.395 140.655 138.224 140.655 136.626C140.65 136.105 140.523 135.593 140.283 135.131C139.995 134.579 139.639 134.065 139.224 133.6C138.703 133.009 138.149 132.448 137.564 131.92C136.916 131.326 136.191 130.666 135.389 129.941C134.417 129.074 133.573 128.253 132.857 127.478C132.189 126.765 131.59 125.99 131.068 125.164C130.61 124.439 130.25 123.657 129.996 122.837C129.752 122.019 129.631 121.17 129.637 120.316C129.592 119.342 129.789 118.373 130.21 117.493C130.536 116.842 131.107 116.345 131.798 116.112C132.568 115.887 133.383 115.876 134.158 116.08C135.177 116.329 136.152 116.731 137.05 117.272C138.495 118.11 139.823 119.136 140.998 120.324C142.136 121.458 143.188 122.675 144.146 123.964L142.4 126.633Z" fill="#364F87"/>
<path d="M163.377 151.977V155.951L149.269 147.806V124.491L163.118 132.487V136.461L153.217 130.745V136.359L161.774 141.299V144.978L153.217 140.038V146.112L163.377 151.977Z" fill="#364F87"/>
<path d="M176.139 163.484C174.617 162.597 173.25 161.469 172.09 160.144C170.882 158.782 169.835 157.286 168.971 155.684C168.116 154.111 167.439 152.448 166.953 150.726C166.498 149.173 166.257 147.565 166.238 145.946C166.204 144.565 166.462 143.192 166.996 141.917C167.428 140.876 168.153 139.983 169.085 139.347C170.027 138.751 171.136 138.476 172.247 138.562C173.66 138.683 175.023 139.138 176.225 139.89C177.742 140.778 179.1 141.912 180.246 143.246C181.449 144.623 182.49 146.133 183.35 147.748C184.195 149.326 184.867 150.991 185.354 152.714C185.807 154.256 186.048 155.854 186.069 157.461C186.103 158.838 185.849 160.207 185.325 161.481C184.902 162.515 184.186 163.403 183.265 164.034C182.327 164.627 181.222 164.9 180.116 164.811C178.704 164.69 177.341 164.235 176.139 163.484V163.484ZM170.243 148.259C170.251 149.323 170.385 150.382 170.645 151.413C170.912 152.508 171.301 153.57 171.804 154.578C172.306 155.588 172.931 156.533 173.663 157.391C174.371 158.231 175.218 158.943 176.168 159.495C176.923 159.986 177.8 160.259 178.7 160.283C179.387 160.277 180.047 160.022 180.56 159.567C181.099 159.062 181.494 158.423 181.705 157.715C181.972 156.87 182.102 155.986 182.091 155.099C182.083 154.032 181.944 152.97 181.677 151.936C181.401 150.839 181.007 149.775 180.503 148.763C180.002 147.757 179.377 146.817 178.643 145.966C177.94 145.142 177.104 144.442 176.168 143.896C175.407 143.403 174.526 143.127 173.62 143.099C172.935 143.096 172.273 143.345 171.761 143.798C171.229 144.303 170.839 144.939 170.63 145.642C170.363 146.488 170.232 147.372 170.243 148.259V148.259Z" fill="#364F87"/>
<path d="M148.214 234.192C101.793 207.39 64.1604 142.481 64.1604 89.212C64.1604 67.8141 70.2367 51.5556 80.512 41.4902C60.9474 47.8544 48.3826 68.0118 48.3826 98.7914C48.3826 152.06 86.0146 216.97 132.436 243.771C160.211 259.807 184.834 258.562 200.139 243.57C185.844 248.22 167.813 245.507 148.214 234.192Z" fill="url(#paint17_linear)"/>
<path style="mix-blend-mode:screen" opacity="0.5" d="M193.072 241.24C223.942 223.194 223.626 165.219 192.368 111.749C161.109 58.2792 110.745 29.5629 79.8752 47.6093C49.0057 65.6557 49.321 123.631 80.5795 177.101C111.838 230.57 162.203 259.287 193.072 241.24Z" fill="url(#paint18_radial)"/>
<path style="mix-blend-mode:multiply" d="M193.072 241.24C223.942 223.194 223.626 165.219 192.368 111.749C161.109 58.2792 110.745 29.5629 79.8752 47.6093C49.0057 65.6557 49.321 123.631 80.5795 177.101C111.838 230.57 162.203 259.287 193.072 241.24Z" fill="url(#paint19_radial)"/>
<path d="M150.26 40.6942C127.433 27.5151 106.731 26.0044 91.5844 34.2071C91.1597 34.4372 69.4215 46.5665 68.7363 47.6164C84.1506 35.9885 106.97 36.1657 132.436 50.8687C178.858 77.6704 216.49 142.58 216.49 195.849C216.49 223.029 206.689 241.919 190.925 250.35C192.359 249.913 193.736 249.307 195.028 248.546C195.476 248.296 210.299 239.314 210.737 239.046C225.334 230.124 234.314 211.695 234.314 185.674C234.314 132.405 196.682 67.4958 150.26 40.6942Z" fill="url(#paint20_linear)"/>
<path d="M132.436 50.8687C86.0146 24.0671 48.3826 45.523 48.3826 98.7914C48.3826 152.06 86.0146 216.97 132.436 243.771C178.858 270.573 216.49 249.117 216.49 195.849C216.49 142.58 178.858 77.6704 132.436 50.8687ZM131.849 237.385C88.9909 212.64 54.2474 152.714 54.2474 103.534C54.2474 54.3548 88.9909 34.5461 131.849 59.2902C174.707 84.0344 209.45 143.961 209.45 193.141C209.45 242.32 174.707 262.129 131.849 237.385V237.385Z" fill="url(#paint21_linear)"/>
<path style="mix-blend-mode:screen" d="M136.47 48.8521C114.217 36.0045 93.9985 34.2723 78.9622 41.7913C92.9785 37.8711 113.596 39.9916 132.436 50.8688C178.858 77.6704 216.49 142.58 216.49 195.849C216.49 223.582 203.048 243.473 186.717 251.639C207.237 245.9 220.523 225.482 220.523 193.832C220.523 140.564 182.891 75.6538 136.47 48.8521Z" fill="url(#paint22_radial)"/>
<path style="mix-blend-mode:screen" opacity="0.5" d="M125.36 116.765C138.86 103.223 153.815 91.2128 169.953 80.9541C160.307 70.0003 149.011 60.6183 136.473 53.1463C92.5414 27.7821 56.9275 48.0873 56.9275 98.4989C56.9275 123.853 65.941 151.989 80.485 176.927C92.396 154.771 107.518 134.497 125.36 116.765V116.765Z" fill="url(#paint23_radial)"/>
<path style="mix-blend-mode:color-dodge" d="M116.165 251.083C131.993 251.083 144.824 238.251 144.824 222.423C144.824 206.595 131.993 193.764 116.165 193.764C100.337 193.764 87.5063 206.595 87.5063 222.423C87.5063 238.251 100.337 251.083 116.165 251.083Z" fill="url(#paint24_radial)"/>
<path style="mix-blend-mode:color-dodge" d="M216.472 228.286C232.3 228.286 245.131 215.455 245.131 199.627C245.131 183.799 232.3 170.968 216.472 170.968C200.644 170.968 187.813 183.799 187.813 199.627C187.813 215.455 200.644 228.286 216.472 228.286Z" fill="url(#paint25_radial)"/>
<path style="mix-blend-mode:color-dodge" d="M163.713 94.7605C179.541 94.7605 192.372 81.9294 192.372 66.1014C192.372 50.2735 179.541 37.4424 163.713 37.4424C147.885 37.4424 135.054 50.2735 135.054 66.1014C135.054 81.9294 147.885 94.7605 163.713 94.7605Z" fill="url(#paint26_radial)"/>
<path style="mix-blend-mode:color-dodge" d="M127.581 174.91C163.743 174.91 193.059 145.595 193.059 109.433C193.059 73.271 163.743 43.9558 127.581 43.9558C91.4192 43.9558 62.104 73.271 62.104 109.433C62.104 145.595 91.4192 174.91 127.581 174.91Z" fill="url(#paint27_radial)"/>
<defs>
<radialGradient id="paint0_radial" cx="0" cy="0" r="1" gradientUnits="userSpaceOnUse" gradientTransform="translate(204.097 327.941) scale(213.834)">
<stop stop-color="#364F87"/>
<stop offset="0.1514" stop-color="#263860"/>
<stop offset="0.31426" stop-color="#19243D"/>
<stop offset="0.48022" stop-color="#0E1422"/>
<stop offset="0.64836" stop-color="#06090F"/>
<stop offset="0.81988" stop-color="#020204"/>
<stop offset="1"/>
</radialGradient>
<radialGradient id="paint1_radial" cx="0" cy="0" r="1" gradientUnits="userSpaceOnUse" gradientTransform="translate(1664.01 1264.99) scale(34.5668 42.9782)">
<stop stop-color="#43E8E1"/>
<stop offset="0.12373" stop-color="#38C3BD"/>
<stop offset="0.35688" stop-color="#268480"/>
<stop offset="0.56956" stop-color="#17514F"/>
<stop offset="0.75434" stop-color="#0D2D2C"/>
<stop offset="0.90408" stop-color="#061717"/>
<stop offset="1" stop-color="#040F0F"/>
</radialGradient>
<radialGradient id="paint2_radial" cx="0" cy="0" r="1" gradientUnits="userSpaceOnUse" gradientTransform="translate(2714.67 2491.82) scale(46.4521 28.8216)">
<stop stop-color="#43E8E1"/>
<stop offset="0.12373" stop-color="#38C3BD"/>
<stop offset="0.35688" stop-color="#268480"/>
<stop offset="0.56956" stop-color="#17514F"/>
<stop offset="0.75434" stop-color="#0D2D2C"/>
<stop offset="0.90408" stop-color="#061717"/>
<stop offset="1" stop-color="#040F0F"/>
</radialGradient>
<radialGradient id="paint3_radial" cx="0" cy="0" r="1" gradientUnits="userSpaceOnUse" gradientTransform="translate(265.371 409.531) rotate(-28.3205) scale(22.738)">
<stop offset="0.09596" stop-color="#8493BA"/>
<stop offset="0.21172" stop-color="#606C90"/>
<stop offset="0.32575" stop-color="#444D6E"/>
<stop offset="0.43374" stop-color="#303756"/>
<stop offset="0.53324" stop-color="#232A47"/>
<stop offset="0.61616" stop-color="#1F2542"/>
<stop offset="0.70605" stop-color="#242A49"/>
<stop offset="0.83346" stop-color="#34395B"/>
<stop offset="0.98265" stop-color="#4D5179"/>
<stop offset="0.98485" stop-color="#4D517A"/>
</radialGradient>
<radialGradient id="paint4_radial" cx="0" cy="0" r="1" gradientUnits="userSpaceOnUse" gradientTransform="translate(37669.6 -3384.95) rotate(-28.3206) scale(497.038 497.038)">
<stop offset="0.09596" stop-color="#8493BA"/>
<stop offset="0.21172" stop-color="#606C90"/>
<stop offset="0.32575" stop-color="#444D6E"/>
<stop offset="0.43374" stop-color="#303756"/>
<stop offset="0.53324" stop-color="#232A47"/>
<stop offset="0.61616" stop-color="#1F2542"/>
<stop offset="0.70605" stop-color="#242A49"/>
<stop offset="0.83346" stop-color="#34395B"/>
<stop offset="0.98265" stop-color="#4D5179"/>
<stop offset="0.98485" stop-color="#4D517A"/>
</radialGradient>
<linearGradient id="paint5_linear" x1="224.589" y1="335.543" x2="254.931" y2="319.192" gradientUnits="userSpaceOnUse">
<stop stop-color="#BEC5D8"/>
<stop offset="0.12081" stop-color="#DFE2EC"/>
<stop offset="0.25252" stop-color="white"/>
<stop offset="0.28645" stop-color="#E9EAF0"/>
<stop offset="0.36074" stop-color="#BEC1D2"/>
<stop offset="0.43277" stop-color="#9CA1BA"/>
<stop offset="0.50099" stop-color="#848BAA"/>
<stop offset="0.56382" stop-color="#757D9F"/>
<stop offset="0.61616" stop-color="#70789C"/>
<stop offset="0.67195" stop-color="#767EA3"/>
<stop offset="0.75103" stop-color="#888FB5"/>
<stop offset="0.84359" stop-color="#A5AAD4"/>
<stop offset="0.88384" stop-color="#B4B8E3"/>
<stop offset="0.88716" stop-color="#B2B6E1"/>
<stop offset="0.92902" stop-color="#9DA1C9"/>
<stop offset="0.96773" stop-color="#9094BA"/>
<stop offset="1" stop-color="#8B90B5"/>
</linearGradient>
<radialGradient id="paint6_radial" cx="0" cy="0" r="1" gradientUnits="userSpaceOnUse" gradientTransform="translate(136663 4911.91) rotate(-28.3205) scale(3619.86 5233.93)">
<stop stop-color="#364F87"/>
<stop offset="0.1514" stop-color="#263860"/>
<stop offset="0.31426" stop-color="#19243D"/>
<stop offset="0.48022" stop-color="#0E1422"/>
<stop offset="0.64836" stop-color="#06090F"/>
<stop offset="0.81988" stop-color="#020204"/>
<stop offset="1"/>
</radialGradient>
<linearGradient id="paint7_linear" x1="172.622" y1="263.72" x2="236.454" y2="268.062" gradientUnits="userSpaceOnUse">
<stop stop-color="#D6DAE6"/>
<stop offset="0.01474" stop-color="#D4D8E6"/>
<stop offset="0.27778" stop-color="#B4B8E3"/>
<stop offset="0.3952" stop-color="#9A9FC8"/>
<stop offset="0.52958" stop-color="#838AB0"/>
<stop offset="0.65394" stop-color="#757DA1"/>
<stop offset="0.75758" stop-color="#70789C"/>
<stop offset="0.85335" stop-color="#777EA2"/>
<stop offset="0.98883" stop-color="#898EB3"/>
<stop offset="1" stop-color="#8B90B5"/>
</linearGradient>
<linearGradient id="paint8_linear" x1="191.765" y1="259.81" x2="209.81" y2="250.085" gradientUnits="userSpaceOnUse">
<stop stop-color="#3C445C"/>
<stop offset="0.15819" stop-color="#6B789A"/>
<stop offset="0.25252" stop-color="#8493BA"/>
<stop offset="0.33344" stop-color="#606C90"/>
<stop offset="0.41316" stop-color="#444D6E"/>
<stop offset="0.48864" stop-color="#303756"/>
<stop offset="0.5582" stop-color="#232A47"/>
<stop offset="0.61616" stop-color="#1F2542"/>
<stop offset="0.68142" stop-color="#242A49"/>
<stop offset="0.77393" stop-color="#34395B"/>
<stop offset="0.88224" stop-color="#4D5179"/>
<stop offset="0.88384" stop-color="#4D517A"/>
<stop offset="0.91691" stop-color="#44476B"/>
<stop offset="0.96219" stop-color="#3B3E5C"/>
<stop offset="1" stop-color="#383B57"/>
</linearGradient>
<linearGradient id="paint9_linear" x1="191.927" y1="152.653" x2="301.472" y2="114.706" gradientUnits="userSpaceOnUse">
<stop stop-color="#4EC1DE"/>
<stop offset="0.02805" stop-color="#4DC5DE"/>
<stop offset="0.212" stop-color="#46DFE0"/>
<stop offset="0.32323" stop-color="#43E8E1"/>
<stop offset="0.42879" stop-color="#42DDDD"/>
<stop offset="0.61308" stop-color="#3FC0D1"/>
<stop offset="0.85251" stop-color="#3A92BD"/>
<stop offset="1" stop-color="#3772B0"/>
</linearGradient>
<linearGradient id="paint10_linear" x1="306.587" y1="244.989" x2="284.778" y2="194.787" gradientUnits="userSpaceOnUse">
<stop offset="0.05051" stop-color="#77ABD9"/>
<stop offset="0.25207" stop-color="#79ABD9"/>
<stop offset="0.35139" stop-color="#81ACD8"/>
<stop offset="0.42808" stop-color="#8EADD7"/>
<stop offset="0.49319" stop-color="#A0AED5"/>
<stop offset="0.49495" stop-color="#A1AED5"/>
<stop offset="0.50672" stop-color="#A5B2D7"/>
<stop offset="0.51957" stop-color="#B3BDDD"/>
<stop offset="0.53293" stop-color="#C8D0E7"/>
<stop offset="0.54655" stop-color="#E7EAF4"/>
<stop offset="0.55556" stop-color="white"/>
<stop offset="0.5655" stop-color="#E8F0F9"/>
<stop offset="0.57867" stop-color="#D0E1F2"/>
<stop offset="0.59085" stop-color="#C1D8EE"/>
<stop offset="0.60101" stop-color="#BCD5ED"/>
<stop offset="0.61679" stop-color="#B6D4EC"/>
<stop offset="0.68962" stop-color="#9ECFE7"/>
<stop offset="0.75698" stop-color="#8FCCE4"/>
<stop offset="0.81313" stop-color="#8ACBE3"/>
<stop offset="1" stop-color="#7FD0F5"/>
</linearGradient>
<linearGradient id="paint11_linear" x1="288.439" y1="280.717" x2="286.505" y2="191.537" gradientUnits="userSpaceOnUse">
<stop offset="0.22222" stop-color="#979CD5"/>
<stop offset="0.3653" stop-color="#9BA0D7"/>
<stop offset="0.5215" stop-color="#A9ADDC"/>
<stop offset="0.68392" stop-color="#BEC1E5"/>
<stop offset="0.8495" stop-color="#DDDEF1"/>
<stop offset="1" stop-color="white"/>
</linearGradient>
<radialGradient id="paint12_radial" cx="0" cy="0" r="1" gradientUnits="userSpaceOnUse" gradientTransform="translate(33839.8 21833.6) scale(1305.07 1372.42)">
<stop stop-color="white"/>
<stop offset="1"/>
</radialGradient>
<linearGradient id="paint13_linear" x1="188073" y1="144033" x2="242930" y2="144033" gradientUnits="userSpaceOnUse">
<stop stop-color="#727273"/>
<stop offset="0.02805" stop-color="#FDFEFF"/>
<stop offset="0.212" stop-color="#727373"/>
<stop offset="0.32323" stop-color="#43E8E1"/>
<stop offset="0.42879" stop-color="#727273"/>
<stop offset="0.61308" stop-color="#727273"/>
<stop offset="0.85251" stop-color="#3A92BD"/>
<stop offset="1" stop-color="#727273"/>
</linearGradient>
<linearGradient id="paint14_linear" x1="51159.5" y1="44073.8" x2="45404.8" y2="29686.4" gradientUnits="userSpaceOnUse">
<stop offset="0.05051" stop-color="#727273"/>
<stop offset="0.25207" stop-color="#79ABD9"/>
<stop offset="0.35139" stop-color="#81ACD8"/>
<stop offset="0.42808" stop-color="#8EADD7"/>
<stop offset="0.49319" stop-color="#A0AED5"/>
<stop offset="0.49495" stop-color="#A1AED5"/>
<stop offset="0.50672" stop-color="#A5B2D7"/>
<stop offset="0.51957" stop-color="#B3BDDD"/>
<stop offset="0.53293" stop-color="#C8D0E7"/>
<stop offset="0.54655" stop-color="#E7EAF4"/>
<stop offset="0.55556" stop-color="white"/>
<stop offset="0.5655" stop-color="#E8F0F9"/>
<stop offset="0.57867" stop-color="#D0E1F2"/>
<stop offset="0.59085" stop-color="#C1D8EE"/>
<stop offset="0.60101" stop-color="#BCD5ED"/>
<stop offset="0.61679" stop-color="#B6D4EC"/>
<stop offset="0.68962" stop-color="#9ECFE7"/>
<stop offset="0.75698" stop-color="#8FCCE4"/>
<stop offset="0.81313" stop-color="#8ACBE3"/>
<stop offset="1" stop-color="#727373"/>
</linearGradient>
<linearGradient id="paint15_linear" x1="25942.7" y1="112798" x2="21506.8" y2="100040" gradientUnits="userSpaceOnUse">
<stop offset="0.22222" stop-color="#979CD5"/>
<stop offset="0.3653" stop-color="#9BA0D7"/>
<stop offset="0.5215" stop-color="#A9ADDC"/>
<stop offset="0.68392" stop-color="#BEC1E5"/>
<stop offset="0.8495" stop-color="#DDDEF1"/>
<stop offset="1" stop-color="white"/>
</linearGradient>
<radialGradient id="paint16_radial" cx="0" cy="0" r="1" gradientUnits="userSpaceOnUse" gradientTransform="translate(60982.3 31496.2) scale(3876.09 3610.43)">
<stop stop-color="white"/>
<stop offset="1"/>
</radialGradient>
<linearGradient id="paint17_linear" x1="160.929" y1="255.554" x2="54.5437" y2="67.0984" gradientUnits="userSpaceOnUse">
<stop stop-color="#BEC5D8"/>
<stop offset="0.12081" stop-color="#DFE2EC"/>
<stop offset="0.25252" stop-color="white"/>
<stop offset="0.28645" stop-color="#E9EAF0"/>
<stop offset="0.36074" stop-color="#BEC1D2"/>
<stop offset="0.43277" stop-color="#9CA1BA"/>
<stop offset="0.50099" stop-color="#848BAA"/>
<stop offset="0.56382" stop-color="#757D9F"/>
<stop offset="0.61616" stop-color="#70789C"/>
<stop offset="0.7678" stop-color="#777EA2"/>
<stop offset="0.98231" stop-color="#898EB3"/>
<stop offset="1" stop-color="#8B90B5"/>
</linearGradient>
<radialGradient id="paint18_radial" cx="0" cy="0" r="1" gradientUnits="userSpaceOnUse" gradientTransform="translate(120.725 116.906) scale(113.938)">
<stop offset="0.00505" stop-color="#B0FBFF"/>
<stop offset="1" stop-color="#3456D9"/>
</radialGradient>
<radialGradient id="paint19_radial" cx="0" cy="0" r="1" gradientUnits="userSpaceOnUse" gradientTransform="translate(120.291 117.774) scale(113.939)">
<stop offset="0.48485" stop-color="white"/>
<stop offset="1" stop-color="#7893B3"/>
</radialGradient>
<linearGradient id="paint20_linear" x1="16643.5" y1="8029.99" x2="37258.7" y2="37567.4" gradientUnits="userSpaceOnUse">
<stop stop-color="#BEC5D8"/>
<stop offset="0.12081" stop-color="#DFE2EC"/>
<stop offset="0.25252" stop-color="white"/>
<stop offset="0.28645" stop-color="#E9EAF0"/>
<stop offset="0.36074" stop-color="#BEC1D2"/>
<stop offset="0.43277" stop-color="#9CA1BA"/>
<stop offset="0.50099" stop-color="#848BAA"/>
<stop offset="0.56382" stop-color="#757D9F"/>
<stop offset="0.61616" stop-color="#70789C"/>
<stop offset="0.67195" stop-color="#767EA3"/>
<stop offset="0.75103" stop-color="#888FB5"/>
<stop offset="0.84359" stop-color="#A5AAD4"/>
<stop offset="0.88384" stop-color="#B4B8E3"/>
<stop offset="0.88716" stop-color="#B2B6E1"/>
<stop offset="0.92902" stop-color="#9DA1C9"/>
<stop offset="0.96773" stop-color="#9094BA"/>
<stop offset="1" stop-color="#8B90B5"/>
</linearGradient>
<linearGradient id="paint21_linear" x1="191.867" y1="116.897" x2="-26.9839" y2="228.928" gradientUnits="userSpaceOnUse">
<stop stop-color="white"/>
<stop offset="0.17783" stop-color="#EAEBF7"/>
<stop offset="0.4798" stop-color="#CACDEB"/>
<stop offset="0.57885" stop-color="#B7BADB"/>
<stop offset="0.73505" stop-color="#9FA3C6"/>
<stop offset="0.87954" stop-color="#9095B9"/>
<stop offset="1" stop-color="#8B90B5"/>
</linearGradient>
<radialGradient id="paint22_radial" cx="0" cy="0" r="1" gradientUnits="userSpaceOnUse" gradientTransform="translate(20456.4 16367.3) scale(9868.08 14939.5)">
<stop stop-color="white"/>
<stop offset="1"/>
</radialGradient>
<radialGradient id="paint23_radial" cx="0" cy="0" r="1" gradientUnits="userSpaceOnUse" gradientTransform="translate(11632.2 12354.2) scale(5394.01 6428.67)">
<stop stop-color="white"/>
<stop offset="1"/>
</radialGradient>
<radialGradient id="paint24_radial" cx="0" cy="0" r="1" gradientUnits="userSpaceOnUse" gradientTransform="translate(5965.36 10916) scale(921.903)">
<stop stop-color="#364F87"/>
<stop offset="0.1514" stop-color="#263860"/>
<stop offset="0.31426" stop-color="#19243D"/>
<stop offset="0.48022" stop-color="#0E1422"/>
<stop offset="0.64836" stop-color="#06090F"/>
<stop offset="0.81988" stop-color="#020204"/>
<stop offset="1"/>
</radialGradient>
<radialGradient id="paint25_radial" cx="0" cy="0" r="1" gradientUnits="userSpaceOnUse" gradientTransform="translate(10479.2 9890.1) scale(921.903)">
<stop stop-color="#364F87"/>
<stop offset="0.1514" stop-color="#263860"/>
<stop offset="0.31426" stop-color="#19243D"/>
<stop offset="0.48022" stop-color="#0E1422"/>
<stop offset="0.64836" stop-color="#06090F"/>
<stop offset="0.81988" stop-color="#020204"/>
<stop offset="1"/>
</radialGradient>
<radialGradient id="paint26_radial" cx="0" cy="0" r="1" gradientUnits="userSpaceOnUse" gradientTransform="translate(8105.02 3881.46) scale(921.903)">
<stop stop-color="#364F87"/>
<stop offset="0.1514" stop-color="#263860"/>
<stop offset="0.31426" stop-color="#19243D"/>
<stop offset="0.48022" stop-color="#0E1422"/>
<stop offset="0.64836" stop-color="#06090F"/>
<stop offset="0.81988" stop-color="#020204"/>
<stop offset="1"/>
</radialGradient>
<radialGradient id="paint27_radial" cx="0" cy="0" r="1" gradientUnits="userSpaceOnUse" gradientTransform="translate(129.692 111.527) scale(47.8698)">
<stop offset="0.00505" stop-color="#43E8E1"/>
<stop offset="0.02296" stop-color="#42D9D8"/>
<stop offset="0.08048" stop-color="#3EAFC0"/>
<stop offset="0.13917" stop-color="#3B8DAB"/>
<stop offset="0.19841" stop-color="#39729B"/>
<stop offset="0.25839" stop-color="#375E90"/>
<stop offset="0.31958" stop-color="#365389"/>
<stop offset="0.38384" stop-color="#364F87"/>
<stop offset="0.47713" stop-color="#263860"/>
<stop offset="0.57747" stop-color="#19243D"/>
<stop offset="0.67973" stop-color="#0E1422"/>
<stop offset="0.78333" stop-color="#06090F"/>
<stop offset="0.88902" stop-color="#020204"/>
<stop offset="1"/>
</radialGradient>
</defs>
</svg>
